<?xml version="1.0" encoding="utf-8"?>
<!-- Generator: Adobe Illustrator 18.0.0, SVG Export Plug-In . SVG Version: 6.00 Build 0)  -->
<!DOCTYPE svg PUBLIC "-//W3C//DTD SVG 1.1//EN" "http://www.w3.org/Graphics/SVG/1.1/DTD/svg11.dtd">
<svg version="1.1" id="Layer_1" xmlns="http://www.w3.org/2000/svg" xmlns:xlink="http://www.w3.org/1999/xlink" x="0px" y="0px"
	 viewBox="0 0 1400 980" enable-background="new 0 0 1400 980" xml:space="preserve">
<g>
	<g>
		<g>
			<g>
				<rect fill="#5DA9C9" width="1400" height="980"/>
			</g>
		</g>
	</g>
	<path fill="#286E87" d="M51.8,682.6c-4-0.1-6.6,4.7-5.7,8.6c0.9,3.9,4.2,6.7,7.4,9c3.3,2.3,6.8,4.4,9,7.8
		c4.7,7.3,0.6,17.6-6.5,22.6c-0.7,0.5-1.4,0.9-2.2,0.9c-2.3-0.1-2.6-3.3-2.4-5.6c1.5-14.5-5.2-28.8-13.7-40.7
		c-1.7-2.5-3.6-4.9-6.2-6.5s-5.9-2.2-8.6-0.8c-4.9,2.5-4.6,10-1.3,14.4s8.5,6.8,12.7,10.3c8.5,7.1,12.9,18.8,10.9,29.7
		c-7.6-4.2-11.2-12.9-15.7-20.3c-4.5-7.4-12.4-14.6-20.8-12.4c-1,3.5,0.4,7.4,2.7,10.3s5.3,5,8.3,7.1c7,5,13.7,10.3,20.1,16
		c2.5,2.2,5.1,4.6,6.1,7.8c1.6,5.2-1.3,10.8-0.3,16.2c2.9,0.4,5.9-1,7.6-3.3c0-4.2,3.2-7.5,5.4-11.1c3-4.9,4.2-10.7,5.3-16.3
		c1.5-7.5,3-15.2,2.3-22.8c-0.8-7.6-4.2-15.4-10.7-19.5C54.6,683.3,53.2,682.7,51.8,682.6z"/>
	<path fill="#286E87" d="M1345,684.7c-1.7,3.6-2.4,7.6-1.8,11.5c0.1-4.1,0.2-8.3,0.3-12.4c0-1.9,0.1-3.9-0.4-5.7
		c-0.5-2-1.5-3.8-2.2-5.7c-4.6-11.9,1.3-25,7.1-36.3c4.4,9.6-4,22.9,3.3,30.6c1.4-11.5,6.4-22.6,14-31.3c4.5,12.8-2.9,26.3-5.8,39.6
		c-2.3,10.6-1.6,21.8,2,31.9c-5.1-9.4-1.7-21.2,3.6-30.6s12.4-17.9,15.2-28.2c-0.8,14.2-4.4,28.2-10.7,40.9c0.7-6.7,4.2-13,9.3-17.3
		c4-3.3,9.4-6,10.7-11c-5.1,20.9-8.7,42.1-10.9,63.5c-11.2-5.8-23.8-11.7-36-8.3c-4.2,1.2-9,3.4-12.6,0.9c-3.3-2.4-3.2-7.4-1.8-11.2
		c1.4-3.8,3.6-7.6,3.3-11.7c-0.5-6.6-7.1-10.9-9.2-17.1c-1.6-4.7-0.4-9.7,0.8-14.5c1.6-6.2,3.1-12.5,4.7-18.7
		c2,7.2-0.4,15.2,1.6,22.4C1331.7,674,1338.5,679.6,1345,684.7z"/>
	<path fill="#286E87" d="M750.2,706.4c-1.7,3.6-2.4,7.6-1.8,11.5c0.1-4.1,0.2-8.3,0.3-12.4c0-1.9,0.1-3.9-0.4-5.7
		c-0.5-2-1.5-3.8-2.2-5.7c-4.6-11.9,1.3-25,7.1-36.3c4.4,9.6-4,22.9,3.3,30.6c1.4-11.5,6.4-22.6,14-31.3c4.5,12.8-2.9,26.3-5.8,39.6
		c-2.3,10.6-1.6,21.8,2,31.9c-5.1-9.4-1.7-21.2,3.6-30.6c5.3-9.3,12.4-17.9,15.2-28.2c-0.8,14.2-4.4,28.2-10.7,40.9
		c0.7-6.7,4.2-13,9.3-17.3c4-3.3,9.4-6,10.7-11c-5.1,20.9-8.7,42.1-10.9,63.5c-11.2-5.8-23.8-11.7-36-8.3c-4.2,1.2-9,3.4-12.6,0.9
		c-3.3-2.4-3.2-7.4-1.8-11.2s3.6-7.6,3.3-11.7c-0.5-6.6-7.1-10.9-9.2-17.1c-1.6-4.7-0.4-9.7,0.8-14.5c1.6-6.2,3.1-12.5,4.7-18.7
		c2,7.2-0.4,15.2,1.6,22.4C736.8,695.6,743.7,701.3,750.2,706.4z"/>
	<path fill="#286E87" d="M418.5,708.8c-1.7,3.6-2.4,7.6-1.8,11.5c0.1-4.1,0.2-8.3,0.3-12.4c0-1.9,0.1-3.9-0.4-5.7
		c-0.5-2-1.5-3.8-2.2-5.7c-4.6-11.9,1.3-25,7.1-36.3c4.4,9.6-4,22.9,3.3,30.6c1.4-11.5,6.4-22.6,14-31.3c4.5,12.8-2.9,26.3-5.8,39.6
		c-2.3,10.6-1.6,21.8,2,31.9c-5.1-9.4-1.7-21.2,3.6-30.6c5.3-9.3,12.4-17.9,15.2-28.2c-0.8,14.2-4.4,28.2-10.7,40.9
		c0.7-6.7,4.2-13,9.3-17.3c4-3.3,9.4-6,10.7-11c-5.1,20.9-8.7,42.1-10.9,63.5c-11.2-5.8-23.8-11.7-36-8.3c-4.2,1.2-9,3.4-12.6,0.9
		c-3.3-2.4-3.2-7.4-1.8-11.2c1.4-3.8,3.6-7.6,3.3-11.7c-0.5-6.6-7.1-10.9-9.2-17.1c-1.6-4.7-0.4-9.7,0.8-14.5
		c1.6-6.2,3.1-12.5,4.7-18.7c2,7.2-0.4,15.2,1.6,22.4C405.1,698,412,703.7,418.5,708.8z"/>
	<path fill="#286E87" d="M1400,710.6c-54.2-10.3-108.2-19.6-161.4-7.7c-52.4,11.7-98.2,43-149.5,59c-54.1,16.8-113.6,15.7-166.9-3.3
		c-42.2-15-82.2-41-127-40.7c-25.4,0.2-49.8,8.9-73.5,18.1c-117.5,45.4-236.3,104.7-361.9,95.3c-105.5-7.9-201.3-63.7-304.5-86.9
		c-18.2-4.1-36.7-7.1-55.2-9.3V980h1400V710.6z"/>
	<path fill="#2F7A95" d="M106.2,773.9c5.8-1.4,10-7,10.8-13s-1.1-11.9-4.1-17.1c-1.8-3.1-4-6.1-4.6-9.7c-0.6-3.5,1.3-7.8,4.8-8.4
		c3.8-0.6,6.8,3.3,7.6,7c0.8,3.7,0.1,7.7,1,11.3c0.9,3.7,4.4,7.3,8,6.3c3.6-6.4,3.6-14.6,0-20.9c-3.3-5.9-9.1-9.8-13.4-15
		s-6.9-13.1-2.9-18.4c0.7-0.9,1.6-1.7,2.7-1.8c1.9-0.2,3.4,1.5,4.4,3.1c3.6,5.4,6.3,11.3,8.2,17.5c1,3.2,2,7,5,8.5
		c4.4,2.3,9.9-2.1,10.4-7c0.5-4.9-2.4-9.5-5.6-13.3c-3.2-3.8-6.9-7.4-8.5-12c-0.9-2.4-1.1-4.9-1.2-7.5c0-4.3,1.9-9.7,6.1-9.6
		c1.5,0,2.9,0.8,4.1,1.8c7.1,6.2,4.4,18,8.6,26.4c0.7,1.4,1.6,2.7,2.9,3.5c3.7,2.1,8.6-1.5,9.5-5.7c0.9-4.2-0.7-8.5-1.8-12.6
		c-1.8-6.5-2-14.8,3.6-18.6c5.3-3.6,13.1-0.6,16.5,4.8c3.4,5.4,3.5,12.2,2.8,18.6c-0.3,2.9-0.9,6-2.7,8.3c-1.4,1.8-3.5,2.9-5.5,3.9
		c-3.8,1.9-7.8,3.4-11.9,4.5c-5.1,1.4-11.6,3.6-11.6,8.8c-0.1,4.7,6,7.5,10.5,6c4.5-1.4,7.6-5.4,10.5-9.2c2.9-3.7,6.2-7.7,10.7-8.8
		c4.3-1,9.2,1,11.5,4.7s2,9-0.8,12.5c-4.1,4.9-11.4,5.3-17.8,5.2c-5.2-0.1-10.4-0.1-15.6-0.2c-3.6,0-7.6,0.1-10.1,2.7
		c-3.2,3.5-0.6,10.3,4.1,10.7c1.6,0.1,3.3-0.3,4.8-0.8c2.3-0.7,4.6-1.4,6.9-2.1c3.9-1.2,8-2.4,12-1.6c4,0.8,7.8,4.3,7.4,8.4
		c-0.3,3.1-2.9,5.5-5.8,6.6s-6,1-9.1,1c-5.7-0.1-11.5-0.2-16.6-2.8c-2.2-1.1-4.3-2.6-6.7-2.6c-3.2,0.1-5.7,3-6.3,6.2
		c-0.6,3.1,0.2,6.3,1,9.4c10.1-0.2,20.1-0.4,30.2-0.6c1.9,2.9,0,7.2-3.1,8.9c-3.1,1.7-6.8,1.6-10.3,1.5c-8.7-0.4-17.5-0.7-26.2-1.1
		c-1.4-0.1-2.9-0.1-4,0.8c-1.6,1.3-1.3,3.7-1.2,5.8c0.3,6.2-3,12.4-8.2,15.6s-12.2,3.5-17.7,0.5c-1.6-0.9-3.1-2.1-4.1-3.6
		c-1.9-3.1-1.4-7-2.1-10.6c-1.6-7.5-8.8-12.5-16-15.4c-7.1-2.9-14.9-4.6-21.1-9.2c-1.2-0.9-2.3-2-3-3.3c-1-2.1-0.6-4.9,1-6.6
		c2.8-2.9,7.9-2.1,11.1,0.3c3.2,2.5,5.3,6.1,8,9.1c2.7,3,6.7,5.6,10.6,4.6c2.8-5.6,1.1-13.2-4-16.9c-2.1-1.5-4.5-2.4-7-3.3
		c-4.2-1.5-8.4-3.1-12.6-4.6c-2.9-1.1-5.9-2.2-8.1-4.3c-2.2-2.1-3.4-5.6-2-8.4c4.2-3.5,10.7-1.6,15.2,1.6s8.5,7.4,13.9,8.4
		c1.7-4.5-1.1-9.7-5.1-12.5s-8.8-3.9-13.3-5.7s-9.1-4.4-10.9-8.9c-1.8-4.5,0.7-10.8,5.5-11.2c3.4-0.3,6.4,2.4,8.2,5.3s3,6.2,5.2,8.8
		s6.2,4.2,9.1,2.5c2.3-4,0.6-9.2-2.5-12.6c-3.1-3.4-7.4-5.4-11.3-7.8c-3.9-2.4-7.7-5.6-9-10c-1.6-5.5,1.6-11.7,6.7-14.2
		c5.1-2.5,11.6-1.4,16,2.2c4.4,3.6,6.8,9.3,6.9,15c0.1,4.2-1,8.6,0.2,12.6c0.4,1.2,1,2.4,2.1,3.1c2.7,1.7,6.3-1,7.3-4.1
		c0.9-3.1,0.4-6.5,1.4-9.5c6.2,1.8,8.8,10.8,4.5,15.7c-2.8,3.2-7.4,4.1-10.7,6.8c-4,3.3-5.5,9.3-3.6,14.1c3.6-0.7,6.2-3.7,8.8-6.2
		c2.6-2.5,6.2-4.9,9.7-3.9c2.8,0.8,4.7,3.7,5.2,6.6c0.5,2.9-0.2,5.9-0.8,8.8c-0.3,1.3-0.7,2.7-1.8,3.4c-0.6,0.4-1.3,0.5-2.1,0.6
		c-4.4,0.5-9-0.3-13.2,1.2s-7.6,6.7-5,10.3c2.8,3.9,9,1.8,12.7-1.3c1.4-1.2,3.2-2.7,5-2.2c2.7,0.7,2.7,4.5,2,7.3
		c-6.3,2.1-13.1,5.6-15.1,11.9c-1.3,4.1-0.3,8.9,2.6,12.1C97.3,773.5,102,774.9,106.2,773.9z"/>
	<path fill="#2F7A95" d="M831.4,814.5c5.8-1.4,10-7,10.8-13c0.8-5.9-1.1-11.9-4.1-17.1c-1.8-3.1-4-6.1-4.6-9.7
		c-0.6-3.5,1.3-7.8,4.8-8.4c3.8-0.6,6.8,3.3,7.6,7c0.8,3.7,0.1,7.7,1,11.3s4.4,7.3,8,6.3c3.6-6.4,3.6-14.6,0-20.9
		c-3.3-5.9-9.1-9.8-13.4-15c-4.3-5.2-6.9-13.1-2.9-18.4c0.7-0.9,1.6-1.7,2.7-1.8c1.9-0.2,3.4,1.5,4.4,3.1c3.6,5.4,6.3,11.3,8.2,17.5
		c1,3.2,2,7,5,8.5c4.4,2.3,9.9-2.1,10.4-7c0.5-4.9-2.4-9.5-5.6-13.3c-3.2-3.8-6.9-7.4-8.5-12c-0.9-2.4-1.1-4.9-1.2-7.5
		c0-4.3,1.9-9.7,6.1-9.6c1.5,0,2.9,0.8,4.1,1.8c7.1,6.2,4.4,18,8.6,26.4c0.7,1.4,1.6,2.7,2.9,3.5c3.7,2.1,8.6-1.5,9.5-5.7
		c0.9-4.2-0.7-8.5-1.8-12.6c-1.8-6.5-2-14.8,3.6-18.6c5.3-3.6,13.1-0.6,16.5,4.8s3.5,12.2,2.8,18.6c-0.3,2.9-0.9,6-2.7,8.3
		c-1.4,1.8-3.5,2.9-5.5,3.9c-3.8,1.9-7.8,3.4-11.9,4.5c-5.1,1.4-11.6,3.6-11.6,8.8c-0.1,4.7,6,7.5,10.5,6s7.6-5.4,10.5-9.2
		c2.9-3.7,6.2-7.7,10.7-8.8c4.3-1,9.2,1,11.5,4.7c2.4,3.8,2,9-0.8,12.5c-4.1,4.9-11.4,5.3-17.8,5.2c-5.2-0.1-10.4-0.1-15.6-0.2
		c-3.6,0-7.6,0.1-10.1,2.7c-3.2,3.5-0.6,10.3,4.1,10.7c1.6,0.1,3.3-0.3,4.8-0.8c2.3-0.7,4.6-1.4,6.9-2.1c3.9-1.2,8-2.4,12-1.6
		c4,0.8,7.8,4.3,7.4,8.4c-0.3,3.1-2.9,5.5-5.8,6.6c-2.9,1.1-6,1-9.1,1c-5.7-0.1-11.5-0.2-16.6-2.8c-2.2-1.1-4.3-2.6-6.7-2.6
		c-3.2,0.1-5.7,3-6.3,6.2c-0.6,3.1,0.2,6.3,1,9.4c10.1-0.2,20.1-0.4,30.2-0.6c1.9,2.9,0,7.2-3.1,8.9c-3.1,1.7-6.8,1.6-10.3,1.5
		c-8.7-0.4-17.5-0.7-26.2-1.1c-1.4-0.1-2.9-0.1-4,0.8c-1.6,1.3-1.3,3.7-1.2,5.8c0.3,6.2-3,12.4-8.2,15.6c-5.2,3.3-12.2,3.5-17.7,0.5
		c-1.6-0.9-3.1-2.1-4.1-3.6c-1.9-3.1-1.4-7-2.1-10.6c-1.6-7.5-8.8-12.5-16-15.4c-7.1-2.9-14.9-4.6-21.1-9.2c-1.2-0.9-2.3-2-3-3.3
		c-1-2.1-0.6-4.9,1-6.6c2.8-2.9,7.9-2.1,11.1,0.3c3.2,2.5,5.3,6.1,8,9.1c2.7,3,6.7,5.6,10.6,4.6c2.8-5.6,1.1-13.2-4-16.9
		c-2.1-1.5-4.5-2.4-7-3.3c-4.2-1.5-8.4-3.1-12.6-4.6c-2.9-1.1-5.9-2.2-8.1-4.3c-2.2-2.1-3.4-5.6-2-8.4c4.2-3.5,10.7-1.6,15.2,1.6
		c4.5,3.2,8.5,7.4,13.9,8.4c1.7-4.5-1.1-9.7-5.1-12.5c-4-2.8-8.8-3.9-13.3-5.7c-4.5-1.7-9.1-4.4-10.9-8.9
		c-1.8-4.5,0.7-10.8,5.5-11.2c3.4-0.3,6.4,2.4,8.2,5.3s3,6.2,5.2,8.8c2.2,2.6,6.2,4.2,9.1,2.5c2.3-4,0.6-9.2-2.5-12.6
		c-3.1-3.4-7.4-5.4-11.3-7.8c-3.9-2.4-7.7-5.6-9-10c-1.6-5.5,1.6-11.7,6.7-14.2c5.1-2.5,11.6-1.4,16,2.2c4.4,3.6,6.8,9.3,6.9,15
		c0.1,4.2-1,8.6,0.2,12.6c0.4,1.2,1,2.4,2.1,3.1c2.7,1.7,6.3-1,7.3-4.1c0.9-3.1,0.4-6.5,1.4-9.5c6.2,1.8,8.8,10.8,4.5,15.7
		c-2.8,3.2-7.4,4.1-10.7,6.8c-4,3.3-5.5,9.3-3.6,14.1c3.6-0.7,6.2-3.7,8.8-6.2c2.6-2.5,6.2-4.9,9.7-3.9c2.8,0.8,4.7,3.7,5.2,6.6
		c0.5,2.9-0.2,5.9-0.8,8.8c-0.3,1.3-0.7,2.7-1.8,3.4c-0.6,0.4-1.3,0.5-2.1,0.6c-4.4,0.5-9-0.3-13.2,1.2c-4.2,1.5-7.6,6.7-5,10.3
		c2.8,3.9,9,1.8,12.7-1.3c1.4-1.2,3.2-2.7,5-2.2c2.7,0.7,2.7,4.5,2,7.3c-6.3,2.1-13.1,5.6-15.1,11.9c-1.3,4.1-0.3,8.9,2.6,12.1
		C822.5,814.1,827.2,815.5,831.4,814.5z"/>
	<path fill="#2F7A95" d="M1331,844.3c3.4-2.3,4.6-7.9,3.6-13s-3.8-9.7-7.1-13.4c-2-2.2-4.2-4.3-5.5-7.1c-1.3-2.8-1.2-6.8,0.9-8
		c2.3-1.2,5.2,1.3,6.7,4.3c1.5,3,2.1,6.3,3.6,9.2c1.5,2.9,4.7,5.2,6.8,3.6c0.6-6-1.5-12.8-5.5-17.4c-3.6-4.2-8.4-6.3-12.5-9.8
		c-4.1-3.4-7.9-9.5-6.7-14.8c0.2-0.9,0.6-1.7,1.3-2.1c1.1-0.6,2.5,0.6,3.6,1.7c3.7,3.8,7,8.1,9.8,12.9c1.5,2.5,3.1,5.4,5.4,6.1
		c3.4,1,5.8-3.8,4.9-8c-1-4.2-4-7.5-7-10c-3-2.5-6.3-4.7-8.6-8.3c-1.2-1.8-2-3.9-2.7-6c-1.1-3.5-1.3-8.5,1.4-9.3
		c1-0.3,2.1,0.1,3.1,0.7c6.2,3.8,7.5,14.1,12.4,20.3c0.8,1,1.7,1.9,2.8,2.3c3,1,5.1-3,4.6-6.7c-0.5-3.7-2.6-6.9-4.5-10.1
		c-2.9-5.1-5.1-11.9-2.6-16.2c2.5-4.1,8.2-3.1,11.9,0.6s5.5,9.5,6.7,14.9c0.5,2.5,1,5.2,0.4,7.5c-0.4,1.8-1.5,3.1-2.5,4.4
		c-2,2.3-4.1,4.4-6.5,6.2c-2.9,2.2-6.5,5.3-5.2,9.7c1.2,3.9,5.8,5,8.3,2.9c2.5-2.1,3.4-6.1,4.3-9.7c0.9-3.7,2-7.6,4.6-9.4
		c2.5-1.7,6.2-1.1,8.6,1.6c2.5,2.7,3.7,7.1,2.7,10.5c-1.3,4.9-5.9,6.7-10.1,7.9c-3.4,1-6.7,2-10.1,3c-2.3,0.7-4.9,1.6-5.7,4.3
		c-1.1,3.6,2.3,8.7,5.5,8.1c1.1-0.2,2-0.9,2.9-1.7c1.3-1.1,2.6-2.1,3.9-3.2c2.2-1.8,4.5-3.6,7.3-3.8c2.8-0.1,6.1,2,6.9,5.5
		c0.6,2.6-0.4,5.2-2,6.6c-1.6,1.5-3.6,2.1-5.6,2.7c-3.6,1.1-7.5,2.1-11.4,1c-1.7-0.5-3.4-1.3-5-0.8c-2,0.7-2.8,3.7-2.4,6.4
		c0.4,2.7,1.8,5.2,3.1,7.6c6.4-2.2,12.8-4.4,19.2-6.6c2,2.1,1.9,6,0.3,8c-1.5,2-4,2.7-6.2,3.3c-5.7,1.5-11.4,2.9-17.1,4.4
		c-0.9,0.2-1.9,0.5-2.3,1.5c-0.7,1.4,0.2,3.4,0.8,5.1c1.8,5.1,1.3,10.9-1.2,14.7s-7,5.3-11.2,4c-1.3-0.4-2.5-1.1-3.6-2.2
		c-2-2.2-2.7-5.6-4.1-8.4c-3-5.9-8.9-8.6-14.3-9.6c-5.3-1-10.8-0.8-15.9-3.5c-1-0.5-2-1.2-2.8-2.2c-1.2-1.6-1.6-3.9-1-5.7
		c1-3,4.5-3.4,7.2-2c2.7,1.4,5,4,7.5,6c2.5,2,5.8,3.3,8,1.7c0.4-5.2-2.8-11.2-7-13.3c-1.7-0.9-3.5-1.1-5.3-1.4
		c-3.1-0.4-6.2-0.9-9.3-1.3c-2.1-0.3-4.3-0.6-6.3-2c-2-1.3-3.7-4-3.5-6.6c1.8-3.8,6.4-3.4,10.1-1.7c3.7,1.7,7.4,4.5,11.1,4.2
		c-0.1-4.1-3.3-7.8-6.5-9.4c-3.3-1.5-6.7-1.5-10-2c-3.4-0.5-7-1.9-9.4-5.2c-2.3-3.4-2.4-9.1,0.6-10.4c2.1-0.9,4.7,0.7,6.6,2.7
		c1.9,2,3.5,4.6,5.6,6.3c2.1,1.7,5.1,2.3,6.5,0.2c0.5-3.8-2-7.8-4.9-10c-2.9-2.2-6.1-3-9.3-4.2c-3.1-1.2-6.4-3.1-8.4-6.5
		c-2.4-4.2-2-10.1,0.6-13.2s7.1-3.5,10.8-1.4c3.8,2.1,6.8,6.4,8.3,11.1c1.2,3.5,1.6,7.3,3.4,10.5c0.6,0.9,1.3,1.8,2.1,2.2
		c2.2,0.9,3.8-2.1,3.6-4.9c-0.2-2.8-1.4-5.5-1.6-8.2c4.5,0.2,8.5,7.3,7,12.1c-1,3.2-3.7,4.9-5.1,7.8c-1.7,3.6-1.1,8.8,1.4,12.4
		c2.1-1.3,3-4.3,4-7c1-2.6,2.7-5.3,5.2-5.2c2,0.1,4,2.2,5,4.5c1.1,2.3,1.4,4.9,1.8,7.5c0.2,1.1,0.3,2.4-0.2,3.2
		c-0.3,0.5-0.7,0.7-1.2,0.9c-2.7,1.3-5.9,1.6-8.2,3.6s-3.1,7.1-0.5,9.6c2.8,2.7,6.3-0.3,7.8-3.6c0.6-1.3,1.3-2.9,2.6-2.8
		c1.9,0.1,2.9,3.2,3.2,5.6c-3.5,3-6.9,7.3-6.6,13c0.2,3.7,2.1,7.5,4.8,9.5C1325.2,845.7,1328.6,846,1331,844.3z"/>
	<path fill="#2F7A95" d="M626.4,751.1c4.1,0.6,8.7-2.7,11.4-7.1c2.7-4.4,3.8-9.7,3.9-14.7c0.1-3-0.2-6,0.8-9c1-3,3.7-5.8,6.1-5.2
		c2.5,0.6,2.9,4.5,2,7.7c-0.9,3.2-2.8,6.1-3.6,9.2s-0.1,7,2.6,7.3c4.5-4,7.6-10.5,7.8-16.5c0.2-5.6-1.9-10.4-2.6-15.7
		c-0.7-5.3,0.7-12.3,5.1-15.4c0.7-0.5,1.6-0.9,2.3-0.7c1.2,0.4,1.5,2.1,1.5,3.7c0.2,5.3-0.3,10.7-1.5,16.2c-0.6,2.8-1.4,6.1-0.1,8.2
		c1.8,3.1,6.8,1.2,9-2.6c2.1-3.7,2.1-8.2,1.6-12.1c-0.5-3.9-1.4-7.8-0.7-11.9c0.4-2.1,1.1-4.2,2.1-6.2c1.6-3.4,4.8-7.1,7.3-5.8
		c0.9,0.5,1.5,1.5,1.8,2.6c2,6.9-4,15.4-4.6,23.3c-0.1,1.3,0,2.6,0.5,3.6c1.5,2.7,5.8,1.3,7.9-1.8c2.1-3,2.7-6.9,3.6-10.5
		c1.3-5.7,4.3-12.3,9.1-13.7c4.6-1.3,8.2,3.3,8.3,8.5c0.1,5.2-2.4,10.7-5.2,15.5c-1.3,2.2-2.8,4.5-4.8,5.8c-1.5,1-3.2,1.3-4.8,1.5
		c-3,0.4-6,0.4-8.9,0.1c-3.6-0.4-8.4-0.5-10.4,3.6c-1.8,3.7,0.9,7.6,4.1,7.8c3.3,0.2,6.6-2.1,9.8-4.2s6.6-4.3,9.8-3.8
		c3,0.4,5.2,3.4,5.3,7c0,3.6-2.1,7.7-5.1,9.6c-4.3,2.7-8.9,0.9-12.7-1c-3.1-1.6-6.3-3.1-9.4-4.7c-2.2-1.1-4.7-2.1-7.1-0.7
		c-3.3,1.8-4.2,7.9-1.5,9.6c0.9,0.6,2.1,0.7,3.3,0.7c1.7,0.1,3.3,0.2,5,0.3c2.8,0.2,5.8,0.4,7.9,2.2c2.1,1.8,3.1,5.6,1.4,8.7
		c-1.3,2.3-3.8,3.5-6,3.5s-4.1-0.9-5.9-1.8c-3.4-1.7-6.9-3.5-9.1-6.9c-0.9-1.5-1.6-3.3-3.1-4c-2-0.9-4.6,0.8-6.1,3.1s-2.2,5-2.9,7.7
		c6.2,2.7,12.4,5.5,18.6,8.2c0.1,2.9-2.7,5.7-5.2,6.1c-2.5,0.5-4.7-0.7-6.8-1.8c-5.2-2.8-10.4-5.6-15.6-8.4
		c-0.8-0.4-1.7-0.9-2.7-0.5c-1.4,0.6-2.2,2.6-2.9,4.2c-2.1,4.9-6.4,8.9-10.8,10c-4.4,1.1-8.7-0.8-10.9-4.7c-0.7-1.2-1.1-2.5-1.1-4
		c0-3,1.8-5.9,2.6-9c1.8-6.4-0.7-12.4-4-16.7s-7.4-7.9-9.4-13.3c-0.4-1.1-0.7-2.2-0.6-3.5c0.2-2,1.4-4,3.1-4.9
		c2.8-1.5,5.6,0.6,6.7,3.5c1.1,2.9,1,6.4,1.5,9.5s2,6.3,4.7,6.7c3.8-3.6,5.5-10.1,3.9-14.5c-0.7-1.8-1.9-3.2-3-4.6
		c-2-2.4-4-4.8-5.9-7.2c-1.4-1.7-2.8-3.4-3.3-5.7c-0.5-2.3,0-5.4,1.9-7.2c3.9-1.6,7.1,1.8,8.6,5.6c1.6,3.8,2.4,8.3,5.3,10.6
		c2.7-3.1,2.9-8,1.5-11.3c-1.4-3.3-3.9-5.6-6-8.3c-2.1-2.7-3.9-6.1-3.3-10.2c0.6-4.1,4.4-8.3,7.5-7.2c2.2,0.8,3,3.7,3,6.5
		c0,2.8-0.5,5.8-0.1,8.4s2.2,5.1,4.6,4.6c2.9-2.5,3.8-7.1,3.2-10.7s-2.5-6.4-4-9.4c-1.5-3-2.6-6.6-1.8-10.5c1.1-4.8,5.3-8.8,9.3-9.3
		c4-0.5,7.6,2.2,8.9,6.3c1.4,4.1,0.7,9.3-1.4,13.8c-1.5,3.4-3.8,6.5-4.6,10c-0.2,1.1-0.3,2.2,0.1,3c1,2.1,4.2,1,5.9-1.2
		c1.7-2.2,2.7-5,4.4-7.1c3.1,3.2,1.3,11.1-3.1,13.6c-2.9,1.7-6,1.1-9,2.3c-3.7,1.5-6.8,5.7-7.4,10.1c2.4,0.5,5.1-1.2,7.7-2.4
		c2.5-1.2,5.6-2.1,7.3-0.3c1.4,1.5,1.5,4.3,0.7,6.7c-0.8,2.4-2.3,4.6-3.8,6.7c-0.7,0.9-1.4,1.9-2.3,2.2c-0.5,0.1-1,0-1.5-0.1
		c-2.9-0.9-5.4-2.8-8.5-2.9c-3.1-0.1-7.1,3.1-6.9,6.7c0.3,3.9,4.8,4,8.2,2.6c1.3-0.6,2.9-1.2,3.9-0.3c1.4,1.3-0.1,4.3-1.5,6.3
		c-4.6-0.2-10,0.7-13.6,5.1c-2.3,2.9-3.5,6.9-2.9,10.3C621.2,748.2,623.5,750.7,626.4,751.1z"/>
	<path fill="#2F7A95" d="M230.7,680.9c5.3-0.1,8.9,6.4,7.6,11.6c-1.2,5.2-5.6,9-9.9,12.1s-9.1,5.9-12,10.4
		c-6.3,9.8-0.7,23.5,8.6,30.3c0.9,0.6,1.9,1.3,3,1.2c3.1-0.1,3.5-4.5,3.2-7.5c-2-19.5,7-38.5,18.3-54.5c2.3-3.3,4.9-6.6,8.3-8.7
		c3.4-2.1,7.9-3,11.5-1.1c6.5,3.4,6.1,13.4,1.7,19.3c-4.4,5.9-11.4,9.1-17.1,13.8c-11.4,9.5-17.2,25.3-14.6,39.9
		c10.2-5.6,15-17.3,21-27.2s16.7-19.5,27.9-16.6c1.3,4.7-0.5,9.9-3.6,13.8s-7.2,6.7-11.2,9.5c-9.3,6.7-18.3,13.8-26.9,21.4
		c-3.4,3-6.8,6.2-8.2,10.5c-2.2,6.9,1.8,14.5,0.4,21.7c-3.9,0.5-7.9-1.3-10.2-4.4c0-5.6-4.3-10.1-7.2-14.8c-4-6.6-5.6-14.3-7.2-21.8
		c-2-10.1-4.1-20.3-3.1-30.5c1-10.2,5.6-20.6,14.3-26.1C227,681.8,228.8,680.9,230.7,680.9z"/>
	<path fill="#2F7A95" d="M499.1,651.2c-4-0.1-6.6,4.7-5.7,8.6s4.2,6.7,7.4,9s6.8,4.4,9,7.8c4.7,7.3,0.6,17.6-6.5,22.6
		c-0.7,0.5-1.4,0.9-2.2,0.9c-2.3-0.1-2.6-3.3-2.4-5.6c1.5-14.5-5.2-28.8-13.7-40.7c-1.7-2.5-3.6-4.9-6.2-6.5s-5.9-2.2-8.6-0.8
		c-4.9,2.5-4.6,10-1.3,14.4s8.5,6.8,12.7,10.3c8.5,7.1,12.9,18.8,10.9,29.7c-7.6-4.2-11.2-12.9-15.7-20.3
		c-4.5-7.4-12.4-14.6-20.8-12.4c-1,3.5,0.4,7.4,2.7,10.3c2.3,2.9,5.3,5,8.3,7.1c7,5,13.7,10.3,20.1,16c2.5,2.2,5.1,4.6,6.1,7.8
		c1.6,5.2-1.3,10.8-0.3,16.2c2.9,0.4,5.9-1,7.6-3.3c0-4.2,3.2-7.5,5.4-11.1c3-4.9,4.2-10.7,5.3-16.3c1.5-7.5,3-15.2,2.3-22.8
		c-0.8-7.6-4.2-15.4-10.7-19.5C501.9,651.9,500.5,651.2,499.1,651.2z"/>
	<path fill="#2F7A95" d="M1016.7,808.6c-1.1,5.3-0.5,10.9,1.4,15.9c-1.3-5.5-2.6-11-3.8-16.5c-0.6-2.6-1.2-5.1-2.4-7.5
		c-1.3-2.5-3.2-4.6-4.8-6.8c-10.1-14.2-6.7-33.6-2.9-50.6c9,11.3,2.5,31.8,14.7,39.5c-2-15.7,0.8-32.1,8-46.2
		c10.3,15.4,5,35.9,5.7,54.5c0.5,14.8,5.2,29.4,13.4,41.7c-10-10.8-9.4-27.6-5.6-41.8c3.9-14.2,10.4-27.9,10.6-42.6
		c3.8,19.1,3.7,38.9-0.3,57.9c-1.3-9.1,1.1-18.6,6.5-26.1c4.2-5.8,10.5-11.1,10.4-18.2c0.3,29.4,2.7,58.8,7,87.9
		c-16.8-3.9-35.6-7.5-50.5,1.1c-5.2,3-10.8,7.5-16.4,5.4c-5.2-2-6.7-8.7-6.2-14.3s2.2-11.3,0.5-16.6c-2.8-8.5-13.2-12.1-18.1-19.6
		c-3.7-5.6-3.8-12.8-3.8-19.5c0-8.8-0.1-17.6-0.1-26.4c5.1,8.9,4.6,20.2,9.7,29.2C995.3,798.8,1006.4,804,1016.7,808.6z"/>
	<path fill="#307C97" d="M1400,848.7c-41.4-5.2-82.9-10.2-124.4-15.1c-75.6-8.9-151.8-17.5-227.8-12.2
		c-42.5,2.9-84.9,10.1-127.5,8.8c-157.7-4.8-296.9-124.3-454.6-120c-100.8,2.7-193.9,56.2-294.2,66.1c-38.9,3.8-78.1,1-117.1,3.9
		c-18.4,1.4-36.5,4-54.4,7.6V980h1400V848.7z"/>
	<path fill="#3585A2" d="M1400,868.6c-53.2,3.8-106.1,12.5-157.6,26.2c-65.5,17.4-134.8,42.6-198.8,20.3c-32-11.2-61.7-34-95.5-31.7
		c-26.5,1.8-49.6,19.1-75.6,24.5c-58.6,12-113.4-37.5-173.2-38c-44.3-0.4-84.8,26.1-129,29.9c-44.8,3.8-91-18.2-116.2-55.4
		c-16.1-23.7-25.7-54.3-51-67.7c-36.5-19.3-78.7,8.8-113.5,31.1c-85.2,54.5-189,78.8-289.5,69.4V980h1400V868.6z"/>
	<g>
		<g>
			<circle fill="#FFFFFF" cx="1131.5" cy="233.7" r="4.4"/>
			<circle fill="#ABE1FA" cx="1132.7" cy="234" r="2.3"/>
		</g>
		<g>
			<circle fill="#FFFFFF" cx="1129.9" cy="255.3" r="3.1"/>
			<circle fill="#ABE1FA" cx="1130.7" cy="255.6" r="1.6"/>
		</g>
		<g>
			<circle fill="#FFFFFF" cx="1128" cy="221.4" r="3.1"/>
			<circle fill="#ABE1FA" cx="1128.9" cy="221.7" r="1.6"/>
		</g>
		<g>
			<circle fill="#FFFFFF" cx="1135.3" cy="245.2" r="3.1"/>
			<circle fill="#ABE1FA" cx="1136.2" cy="245.5" r="1.6"/>
		</g>
		<g>
			<circle fill="#FFFFFF" cx="1109.3" cy="200.6" r="3.1"/>
			<circle fill="#ABE1FA" cx="1110.2" cy="200.9" r="1.6"/>
		</g>
		<g>
			<circle fill="#FFFFFF" cx="1119.4" cy="211.2" r="3.1"/>
			<circle fill="#ABE1FA" cx="1120.2" cy="211.4" r="1.6"/>
		</g>
		<g>
			<circle fill="#FFFFFF" cx="1117.5" cy="195.8" r="2"/>
			<circle fill="#ABE1FA" cx="1118" cy="195.9" r="1"/>
		</g>
		<g>
			<circle fill="#FFFFFF" cx="1116.1" cy="185.3" r="2"/>
			<circle fill="#ABE1FA" cx="1116.7" cy="185.5" r="1"/>
		</g>
		<g>
			<circle fill="#FFFFFF" cx="1134.5" cy="191" r="2"/>
			<circle fill="#ABE1FA" cx="1135" cy="191.1" r="1"/>
		</g>
		<g>
			<circle fill="#FFFFFF" cx="1138.3" cy="221.3" r="2"/>
			<circle fill="#ABE1FA" cx="1138.8" cy="221.4" r="1"/>
		</g>
		<g>
			<circle fill="#FFFFFF" cx="1138.3" cy="171.5" r="2"/>
			<circle fill="#ABE1FA" cx="1138.8" cy="171.7" r="1"/>
		</g>
		<g>
			<circle fill="#FFFFFF" cx="1059.9" cy="36.3" r="2"/>
			<circle fill="#ABE1FA" cx="1060.4" cy="36.5" r="1"/>
		</g>
		<g>
			<circle fill="#FFFFFF" cx="1046.8" cy="53.3" r="2"/>
			<circle fill="#ABE1FA" cx="1047.4" cy="53.5" r="1"/>
		</g>
		<g>
			<circle fill="#FFFFFF" cx="1092.5" cy="72.9" r="2"/>
			<circle fill="#ABE1FA" cx="1093.1" cy="73.1" r="1"/>
		</g>
		<g>
			<circle fill="#FFFFFF" cx="1122.6" cy="240.5" r="2"/>
			<circle fill="#ABE1FA" cx="1123.1" cy="240.6" r="1"/>
		</g>
		<g>
			<circle fill="#FFFFFF" cx="1135.8" cy="268.1" r="2"/>
			<circle fill="#ABE1FA" cx="1136.4" cy="268.2" r="1"/>
		</g>
		<g>
			<circle fill="#FFFFFF" cx="1132.9" cy="283.2" r="2"/>
			<circle fill="#ABE1FA" cx="1133.4" cy="283.4" r="1"/>
		</g>
		<g>
			<circle fill="#FFFFFF" cx="1113.3" cy="224.3" r="5.4"/>
			<circle fill="#ABE1FA" cx="1114.8" cy="224.7" r="2.8"/>
		</g>
		<g>
			<circle fill="#FFFFFF" cx="1123.9" cy="166.4" r="5.4"/>
			<circle fill="#ABE1FA" cx="1125.3" cy="166.8" r="2.8"/>
		</g>
		<g>
			<circle fill="#FFFFFF" cx="1141" cy="113" r="5.4"/>
			<circle fill="#ABE1FA" cx="1142.5" cy="113.5" r="2.8"/>
		</g>
		<g>
			<circle fill="#FFFFFF" cx="1087.4" cy="92.8" r="5.4"/>
			<circle fill="#ABE1FA" cx="1088.9" cy="93.2" r="2.8"/>
		</g>
		<g>
			<circle fill="#FFFFFF" cx="1073.6" cy="26.3" r="5.4"/>
			<circle fill="#ABE1FA" cx="1075" cy="26.7" r="2.8"/>
		</g>
		<g>
			<circle fill="#FFFFFF" cx="1105.6" cy="148.8" r="5.4"/>
			<circle fill="#ABE1FA" cx="1107.1" cy="149.2" r="2.8"/>
		</g>
		<g>
			<circle fill="#FFFFFF" cx="1070.3" cy="52.6" r="5.4"/>
			<circle fill="#ABE1FA" cx="1071.8" cy="53" r="2.8"/>
		</g>
		<g>
			<circle fill="#FFFFFF" cx="1062.5" cy="75" r="5.4"/>
			<circle fill="#ABE1FA" cx="1064" cy="75.4" r="2.8"/>
		</g>
		<g>
			<circle fill="#FFFFFF" cx="1125.5" cy="184.2" r="5.4"/>
			<circle fill="#ABE1FA" cx="1127" cy="184.7" r="2.8"/>
		</g>
		<g>
			<circle fill="#FFFFFF" cx="1133.3" cy="204.2" r="7"/>
			<circle fill="#ABE1FA" cx="1135.3" cy="204.8" r="3.7"/>
		</g>
		<g>
			<circle fill="#FFFFFF" cx="1114.9" cy="94.9" r="7"/>
			<circle fill="#ABE1FA" cx="1116.8" cy="95.5" r="3.7"/>
		</g>
		<g>
			<circle fill="#FFFFFF" cx="1077.8" cy="145.5" r="7"/>
			<circle fill="#ABE1FA" cx="1079.8" cy="146.1" r="3.7"/>
		</g>
		<g>
			<circle fill="#FFFFFF" cx="1114.9" cy="58.1" r="7"/>
			<circle fill="#ABE1FA" cx="1116.8" cy="58.7" r="3.7"/>
		</g>
		<g>
			<circle fill="#FFFFFF" cx="1103" cy="177.2" r="7"/>
			<circle fill="#ABE1FA" cx="1105" cy="177.8" r="3.7"/>
		</g>
		<g>
			<circle fill="#FFFFFF" cx="1092.7" cy="114.8" r="7"/>
			<circle fill="#ABE1FA" cx="1094.6" cy="115.4" r="3.7"/>
		</g>
		<g>
			<circle fill="#FFFFFF" cx="1123.2" cy="131.3" r="10.9"/>
			<circle fill="#ABE1FA" cx="1126.2" cy="132.1" r="5.8"/>
		</g>
		<g>
			<circle fill="#FFFFFF" cx="1089.9" cy="54.2" r="10.9"/>
			<circle fill="#ABE1FA" cx="1092.9" cy="55.1" r="5.8"/>
		</g>
		<g>
			<circle fill="#FFFFFF" cx="1059" cy="104.2" r="10.9"/>
			<circle fill="#ABE1FA" cx="1062" cy="105.1" r="5.8"/>
		</g>
	</g>
	<path fill="#1C5C72" d="M1319.5,695.2l1-8.5c0.1-0.6-0.4-1.2-1-1.3l-3.2-0.4c-0.4-0.1-0.9,0.2-1.1,0.5c-0.1-0.1-0.3-0.1-0.4-0.1
		c-0.2,0-0.5,0-0.8,0.1c0-0.2,0.1-0.5,0.1-0.7c0-0.1,0-0.1,0-0.2c0-0.1,0-0.2,0-0.3c0.9-0.7,1.6-1.3,1.6-1.3s0.2-0.6,0.3-1.5
		c0,0,0,0,0,0s1.6-5.5,0.1-10.1c-0.1-0.6-0.3-1.2-0.5-1.8c0,0-0.6-0.1-1.5-0.2c0-0.4-0.1-0.7-0.1-1.1c0,0,0,0,0,0l0,0
		c-0.6-4.8-2.1-9.2-5.2-11.1c-6.7-4-19.2-5.5-26.3,1.8c-3,3-4.2,7.9-4.7,12.5l-0.5,0l0,0.7c-0.5-1.5-1.6-2.6-3.1-3.1
		c-0.3-4.2-1.7-10.4-6.5-15.3c-5.4-5.5-13.8-7.8-25-6.8c-9.7,0.9-17.5,4.5-23.3,10.6l-5.2-0.2c-0.4,0-0.7,0.3-0.8,0.6l-23.2-0.2
		l0-0.1c0-0.4-0.3-0.8-0.8-0.8l-14.9-0.1c-0.4,0-0.8,0.3-0.8,0.8l-0.1,13.2c-2-0.6-4.8-1-7.7-0.1c-1.3,0.4-2.7,0.4-3.9-0.3
		c-2.3-1.4-5.8-3.3-6.7-3c-1.2,0.4-1.2,0.4-1.2,0.4l6.3,5c0,0-8.9-3.5-10.1-0.8l8.4,3.1c0,0-8.1-2.1-9,1.3l7.5,1.2
		c0,0-7.2,0.1-7.5,2.6c0,0,11.9,1.2,13.2,0.9c1-0.2,6.6-0.2,10.6-0.5l-0.1,5.9c0,0.4,0.3,0.8,0.8,0.8l1.3,0l0,0.5
		c-0.9,0.3-1.7,0.7-2.4,1.1c-3.2,1.8-6.9,2.3-10.5,1.5c-0.4-0.1-0.8-0.2-1.3-0.3c-0.1,0-0.3-0.1-0.4-0.1c-0.3-0.1-0.7-0.1-1-0.2
		c-0.1,0-0.2,0-0.2,0c-0.4-0.1-0.9-0.2-1.3-0.3c-0.1,0-0.2,0-0.4-0.1c-0.4-0.1-0.8-0.2-1.2-0.2c-0.1,0-0.1,0-0.2,0
		c-0.5-0.1-0.9-0.2-1.4-0.3c-0.1,0-0.3-0.1-0.4-0.1c-0.3-0.1-0.7-0.1-1-0.2c-0.1,0-0.2,0-0.3-0.1c-0.5-0.1-0.9-0.2-1.4-0.3
		c-0.1,0-0.3,0-0.4-0.1c-0.3-0.1-0.7-0.1-1-0.2c-0.2,0-0.3-0.1-0.5-0.1c-0.3-0.1-0.6-0.1-1-0.2c-0.2,0-0.4-0.1-0.7-0.1
		c-0.4-0.1-0.8-0.1-1.1-0.2c-0.1,0-0.2,0-0.4-0.1c-0.3-0.1-0.6-0.1-0.9-0.2c-0.2,0-0.4-0.1-0.5-0.1c-0.4-0.1-0.9-0.2-1.3-0.2
		c-0.1,0-0.3-0.1-0.4-0.1c-0.3-0.1-0.7-0.1-1-0.2c-0.1,0-0.2,0-0.3-0.1c-0.3-0.1-0.6-0.1-0.8-0.2c-0.4-0.1-0.9-0.2-1.3-0.3
		c-0.1,0-0.3-0.1-0.4-0.1c-0.2,0-0.5-0.1-0.7-0.1c-0.2,0-0.4-0.1-0.6-0.1c-0.4-0.1-0.7-0.1-1.1-0.2c-0.2,0-0.5-0.1-0.7-0.1
		c-0.2,0-0.4-0.1-0.6-0.1c-0.2,0-0.3-0.1-0.5-0.1c-0.5-0.1-0.9-0.2-1.4-0.3c-0.2,0-0.3-0.1-0.5-0.1c-0.2,0-0.4-0.1-0.6-0.1
		c-0.2,0-0.4-0.1-0.6-0.1c-0.9-0.2-1.7-0.3-2.6-0.5c-0.1,0-0.2,0-0.2,0c-0.2,0-0.4-0.1-0.7-0.1c-0.2,0-0.4-0.1-0.6-0.1
		c-0.4-0.1-0.7-0.1-1.1-0.2c-0.2,0-0.3-0.1-0.5-0.1c-0.2,0-0.3-0.1-0.5-0.1c-0.2,0-0.3-0.1-0.5-0.1c-0.4-0.1-0.9-0.2-1.3-0.2
		c-0.1,0-0.2,0-0.3-0.1c-1.1-0.2-2.1-0.4-3.1-0.6c-0.1,0-0.1,0-0.2,0c-0.2,0-0.4-0.1-0.7-0.1c0,0-0.1,0-0.1,0
		c-0.5-0.1-0.9-0.2-1.3-0.3c0,0-0.1,0-0.1,0c-0.1,0-0.3-0.1-0.4-0.1c-0.2,0-0.4-0.1-0.6-0.1c-0.1,0-0.2,0-0.2,0l0,0
		c-3.8-0.7-6.2-1.2-6.2-1.2s-5.1-8.3-23.2-18.6c-18.1-10.3-26.9-19.9-28.7-28.9c-0.1-0.5-0.2-1-0.3-1.5c-0.1-1.7-0.9-9.1-8.2-7.8
		c-10.6,1.8-30.2,13.3-56,19.6c-25.8,6.2-56.2-11.3-60.3-15c-4-3.5-3.7-0.6-3.6,1c0,0.1,0,0.1,0,0.2c0,0.2,0,0.4,0,0.6
		c0,0.4-0.2,0.7-0.3,1c0,0.1-0.1,0.1-0.1,0.2c0,0.1-0.1,0.1-0.1,0.2c-0.1,0.1-0.1,0.2-0.2,0.3c-0.1,0.1-0.2,0.3-0.3,0.3
		c0,0.1-0.1,0.1-0.1,0.1c0,0,0,0,0,0c-1.7,1.2-2.9,2.4-3.8,3.5c-0.4,0.5-0.7,0.9-0.9,1.4c-0.5,0.9-0.9,1.8-1.1,2.6
		c-0.9,3.6,0.4,6.8-1,8.9c-0.1,0.1-0.2,0.2-0.3,0.4c-0.2,0.2-0.4,0.4-0.7,0.6c-0.1,0.1-0.3,0.2-0.5,0.3c-0.2,0.1-0.3,0.2-0.5,0.3
		c0,0-0.1,0-0.1,0.1c-0.1,0.1-0.2,0.1-0.3,0.2c0,0-0.1,0-0.1,0.1c-0.1,0.1-0.2,0.1-0.3,0.2c0,0-0.1,0-0.1,0.1
		c-0.1,0.1-0.2,0.1-0.3,0.2c0,0,0,0-0.1,0c-0.1,0.1-0.2,0.1-0.2,0.2c0,0,0,0,0,0c-0.1,0.1-0.2,0.1-0.2,0.2c0,0,0,0,0,0
		c-0.1,0.1-0.1,0.1-0.2,0.2c0,0,0,0,0,0c-1.5,1.5,0.6,1.9,0.6,1.9c31.3,18,77.3,7.8,94.4-0.8c17.1-8.6,27.1-9.8,27.1-9.8
		c0,0,0,0,0,0c3.5-0.4,6.8-0.4,8.3,0.6c3.8,2.5,35,43.4,49.9,53.1c2.8,1.8,7.5,4,13.4,6.4l0,0c0.1,0,0.1,0.1,0.2,0.1
		c0,0-0.1,0-0.1,0c-0.1,0-0.2,0-0.3,0.1c-1.4,0.3-2.7,0.5-3.9,0.7l0,0c-4.1,0.8-6.7,1.3-6.7,1.3s-7.8-5.8-28.4-8.7
		c-20.6-2.9-32.3-8.6-37.4-16.3c0-0.1-0.1-0.1-0.1-0.2c0,0,0,0,0,0s-3.3-9-10.6-4.8c-9.3,5.4-23.6,23-45.6,37.9
		c-22,14.8-56.6,9-61.7,7.1c-4.9-1.9-3.7,0.6-3.1,2.1c0,0.1,0.1,0.1,0.1,0.2c0,0,0,0,0,0c0.6,1.4-0.1,3-0.1,3
		c-6.3,9.2-0.2,13.5-0.6,17.3c0,0.1,0,0.3-0.1,0.4c-0.1,0.4-0.3,0.9-0.6,1.3c-0.1,0.1-0.2,0.3-0.3,0.4c-0.1,0.2-0.3,0.3-0.4,0.4
		c0,0-0.1,0.1-0.1,0.1c-0.1,0.1-0.2,0.2-0.2,0.3c0,0-0.1,0.1-0.1,0.1c-0.1,0.1-0.1,0.2-0.2,0.3c0,0-0.1,0.1-0.1,0.1
		c-0.1,0.1-0.1,0.2-0.2,0.2c0,0,0,0.1-0.1,0.1c-0.1,0.1-0.1,0.2-0.1,0.2c0,0,0,0,0,0.1c0,0.1-0.1,0.2-0.1,0.2c0,0,0,0,0,0
		c0,0.1-0.1,0.2-0.1,0.2c0,0,0,0,0,0c-0.8,1.8,1.3,1.5,1.3,1.5c35.6,5.9,75.1-19.7,88.1-33.8c13-14,21.4-18.7,21.4-18.7
		c0-0.1,0-0.2,0-0.4c3.2-1.8,6.4-3.1,8.2-2.7c4.4,0.9,48.6,27.4,66,30.9c3.2,0.6,8.9,0.9,16.1,0.9l0,0c0,0,0,0,0,0
		c1.2,0,2.4,0,3.6,0c0,0,0,0,0,0c1.2,0,2.5,0,3.8-0.1c0,0,0,0,0,0c4.6-0.1,9.4-0.3,14.4-0.5c0,0,0,0,0,0c1.4-0.1,2.8-0.1,4.2-0.2
		c0,0,0,0,0.1,0c1.4-0.1,2.8-0.2,4.3-0.2c0,0,0,0,0.1,0c1.4-0.1,2.8-0.2,4.2-0.2c0,0,0,0,0.1,0c0.7,0,1.4-0.1,2.1-0.1
		c0,0,0.1,0,0.1,0c0.7,0,1.4-0.1,2.1-0.1c0,0,0,0,0,0c0.6,0,1.3-0.1,1.9-0.1c0.1,0,0.2,0,0.3,0c1.3-0.1,2.6-0.2,3.8-0.3
		c0.1,0,0.2,0,0.4,0c0.6,0,1.2-0.1,1.8-0.1c0,0,0,0,0,0c0.6,0,1.2-0.1,1.8-0.1c0.1,0,0.2,0,0.3,0c0.5,0,1-0.1,1.6-0.1
		c0.1,0,0.2,0,0.3,0c0.6,0,1.1-0.1,1.7-0.1c0.1,0,0.3,0,0.4,0c0.4,0,0.9-0.1,1.3-0.1c0.1,0,0.3,0,0.4,0c0.5,0,1.1-0.1,1.6-0.1
		c0.1,0,0.2,0,0.3,0c0.2,0,0.4,0,0.6,0c0.4,0.1,0.8,0.2,1.1,0.3c0.1,0,0.3,0.1,0.4,0.1c0.2,0.1,0.5,0.1,0.7,0.2
		c0.1,0,0.3,0.1,0.4,0.1c0.2,0.1,0.4,0.1,0.7,0.2c0.2,0,0.3,0.1,0.4,0.1c0.2,0.1,0.4,0.1,0.6,0.2c0.1,0,0.3,0.1,0.4,0.1
		c0.3,0.1,0.7,0.2,1,0.3c0.1,0,0.3,0.1,0.4,0.1c0.1,0,0.3,0.1,0.4,0.1c0.2,0,0.3,0.1,0.5,0.1c0.1,0,0.3,0.1,0.4,0.1
		c0.1,0,0.3,0.1,0.4,0.1c0.2,0,0.3,0.1,0.5,0.1c0.1,0,0.2,0.1,0.3,0.1c0.1,0,0.3,0.1,0.4,0.1c0.1,0,0.2,0,0.2,0.1
		c0.3,0.1,0.6,0.2,0.8,0.2c0.1,0,0.1,0,0.2,0.1c0.1,0,0.2,0.1,0.3,0.1c0.1,0,0.2,0,0.3,0.1c0.1,0,0.2,0.1,0.3,0.1c0.1,0,0.1,0,0.2,0
		c0.1,0,0.2,0.1,0.3,0.1c0.3,0.1,0.5,0.1,0.7,0.2c0,0,0,0,0,0c0.3,0.1,0.4,0.1,0.4,0.1s3.3,0.8,8.7,1.9
		c-6.4,7.5-10.9,14.3-10.9,14.3c0,0,0.1,0.1,0.1,0.1c0,0.1-0.1,0.1-0.1,0.1s-6.1,0.3-9.7,4.9c-0.9,1.1-2.2,1.9-3.6,1.9
		c-2.7,0.1-6.9,0.4-7.4,1.1c-0.8,1.1-0.8,1.1-0.8,1.1l8.2,0.7c0,0-9.6,2-9.2,5l9-2.1c0,0-8.1,2.8-7,6.2l7.2-3.2c0,0-6.2,4.2-5,6.5
		c0,0,10.9-5.7,11.9-6.7c1-1,8.2-5.7,10.9-8.1c0,0,0,0,0,0c0.1-0.1,0.2-0.1,0.3-0.2c2.7-2.4,16.5-14.7,21.8-17.4
		c0.7-0.4,1.6-0.8,2.4-1.3c5.5,0.7,11.5,1.4,17.6,1.7c2.6,3.3,5.4,6.1,8.3,8.3c-0.1,0.3-0.1,0.5-0.2,0.8c-0.3,2.6,1.5,4.9,4.1,5.2
		c2.6,0.3,4.9-1.5,5.2-4.1c0.3-2.6-1.5-4.9-4.1-5.2c-1.3-0.2-2.6,0.3-3.6,1.1c-2.1-1.6-4.1-3.6-6.1-5.9c8.5,0.3,17.1,0,24.5-1.4
		c4.3-0.8,7.7-1.6,10.6-2.5c6.3-0.8,9.5-3.2,12.9-5.8c3.5-2.8,7.2-10.2,4.4-19c0,0,0,0,0,0l0,0c4.5-7.4,10.2-8.5,10.2-8.5
		c6.5,4.1,11,3.7,14.1,1.5c0.7,0.1,1.3,0.1,1.9,0c1.5-0.2,2.8-0.7,3.9-1.5c0.2,0.3,0.5,0.6,0.9,0.6l3.2,0.4
		C1318.8,696.3,1319.4,695.8,1319.5,695.2z M1277.1,675.8l-0.1,3l0.7,0c0,0.7,0.1,1.3,0.1,1.9c0.2,2.1-1.1,4-3,4.7l-0.8,0.3
		c-0.3-3.5-5.4-6-5.6-6.1l-0.9,2.6c-0.5-0.3-0.9-0.5-1.2-0.7c0.2-0.7,0.2-1.4,0.3-2.1l8.8,0.1l0-2.1c0.7-0.4,1.2-1.1,1.6-1.8
		C1277,675.8,1277,675.8,1277.1,675.8z M1242.9,649.7c10.3-1,17.9,1,22.8,6c4.1,4.2,5.4,9.7,5.7,13.5c-0.5,0.1-0.9,0.4-1.3,0.6
		l-4.3,0c-0.5-1.3-1.1-2.4-1.9-3.4c-1.5-4.5-5.8-7.8-10.9-7.9l-18.6-0.2c0-0.4-0.4-0.7-0.8-0.7l-5.3-0.2c-0.4,0-0.8,0.3-0.8,0.8
		l0,0.1l-4.8,0C1227.8,653.4,1234.6,650.5,1242.9,649.7z M1195.4,690.4c-0.2-0.1-0.4-0.2-0.6-0.3l7.9,0.1l-0.3,2.3l-1.2,0
		C1199.1,692,1197.2,691.3,1195.4,690.4z M1181.4,741.9C1181.5,741.9,1181.5,741.9,1181.4,741.9L1181.4,741.9z M1311.1,693.8
		c0.1-0.2,0.2-0.3,0.3-0.5c0.1,0.1,0.2,0.2,0.3,0.2C1311.5,693.6,1311.3,693.7,1311.1,693.8z"/>
	<path fill="#2D7792" d="M495.1,356l5.2-6.8c0.4-0.5,0.3-1.2-0.2-1.6l-2.5-2c-0.4-0.3-0.8-0.3-1.2-0.1c-0.1-0.1-0.2-0.2-0.3-0.3
		c-0.2-0.1-0.5-0.3-0.7-0.4c0.1-0.2,0.3-0.4,0.4-0.5c0-0.1,0.1-0.1,0.1-0.2c0.1-0.1,0.1-0.1,0.2-0.2c1.1-0.1,2-0.3,2-0.3
		s0.4-0.4,1.1-1.1c0,0,0,0,0,0s4.2-3.9,5.3-8.6c0.2-0.6,0.3-1.2,0.4-1.8c0,0-0.5-0.4-1.2-1c0.1-0.3,0.3-0.6,0.4-1c0,0,0,0,0,0l0,0
		c1.9-4.5,2.9-9,1.2-12.2c-3.8-6.8-13.7-14.5-23.5-11.9c-4.1,1.1-7.7,4.6-10.4,8.3l-0.4-0.3l-0.4,0.6c0.4-1.5,0-3.1-1.1-4.2
		c1.9-3.8,3.9-9.8,2.3-16.5c-1.8-7.6-7.9-13.8-18-18.6c-8.8-4.2-17.4-5.1-25.4-2.8l-4.4-2.8c-0.3-0.2-0.7-0.1-1,0.1l-19.8-12
		l0.1-0.1c0.2-0.4,0.1-0.9-0.3-1.1l-12.8-7.8c-0.4-0.2-0.9-0.1-1.1,0.3l-6.9,11.3c-1.4-1.5-3.6-3.4-6.6-4c-1.3-0.3-2.5-1.1-3.2-2.3
		c-1.3-2.3-3.3-5.8-4.2-6c-1.3-0.2-1.3-0.2-1.3-0.2l2.9,7.5c0,0-5.8-7.5-8.3-5.9l5.7,7c0,0-5.9-5.9-8.4-3.5l5.8,4.9
		c0,0-6.3-3.6-7.8-1.6c0,0,9.6,7.1,10.9,7.6c1,0.3,5.8,3.2,9.4,5l-3,5c-0.2,0.4-0.1,0.9,0.3,1.1l1.1,0.6l-0.3,0.4
		c-0.9-0.2-1.8-0.3-2.6-0.3c-3.7-0.1-7.1-1.6-9.8-4.1c-0.3-0.3-0.6-0.6-1-0.9c-0.1-0.1-0.2-0.2-0.3-0.3c-0.3-0.2-0.5-0.5-0.8-0.7
		c-0.1-0.1-0.1-0.1-0.2-0.2c-0.3-0.3-0.7-0.6-1-0.9c-0.1-0.1-0.2-0.2-0.3-0.2c-0.3-0.3-0.6-0.5-0.9-0.8c0,0-0.1-0.1-0.1-0.1
		c-0.3-0.3-0.7-0.6-1-0.9c-0.1-0.1-0.2-0.2-0.3-0.3c-0.3-0.2-0.5-0.5-0.8-0.7c-0.1-0.1-0.2-0.1-0.2-0.2c-0.3-0.3-0.7-0.6-1-0.9
		c-0.1-0.1-0.2-0.2-0.3-0.3c-0.3-0.2-0.5-0.5-0.8-0.7c-0.1-0.1-0.3-0.2-0.4-0.3c-0.2-0.2-0.5-0.4-0.7-0.7c-0.2-0.1-0.3-0.3-0.5-0.4
		c-0.3-0.3-0.6-0.5-0.9-0.8c-0.1-0.1-0.2-0.2-0.3-0.3c-0.2-0.2-0.5-0.4-0.7-0.6c-0.1-0.1-0.3-0.2-0.4-0.4c-0.3-0.3-0.6-0.6-1-0.9
		c-0.1-0.1-0.2-0.2-0.3-0.3c-0.3-0.2-0.5-0.5-0.8-0.7c-0.1-0.1-0.2-0.2-0.3-0.2c-0.2-0.2-0.4-0.4-0.6-0.6c-0.3-0.3-0.7-0.6-1-0.9
		c-0.1-0.1-0.2-0.2-0.3-0.3c-0.2-0.2-0.4-0.3-0.6-0.5c-0.2-0.1-0.3-0.3-0.5-0.4c-0.3-0.3-0.6-0.5-0.8-0.8c-0.2-0.2-0.4-0.3-0.6-0.5
		c-0.2-0.1-0.3-0.3-0.5-0.4c-0.1-0.1-0.3-0.2-0.4-0.4c-0.4-0.3-0.7-0.6-1.1-0.9c-0.1-0.1-0.2-0.2-0.4-0.3c-0.2-0.1-0.3-0.3-0.5-0.4
		c-0.1-0.1-0.3-0.3-0.4-0.4c-0.7-0.6-1.3-1.2-2-1.8c-0.1-0.1-0.1-0.1-0.2-0.2c-0.2-0.1-0.3-0.3-0.5-0.4c-0.2-0.1-0.3-0.3-0.5-0.4
		c-0.3-0.2-0.6-0.5-0.8-0.7c-0.1-0.1-0.3-0.2-0.4-0.3c-0.1-0.1-0.3-0.2-0.4-0.3c-0.1-0.1-0.2-0.2-0.4-0.3c-0.3-0.3-0.7-0.6-1-0.9
		c-0.1-0.1-0.1-0.1-0.2-0.2c-0.8-0.7-1.6-1.4-2.4-2.1c0,0-0.1-0.1-0.1-0.1c-0.2-0.1-0.3-0.3-0.5-0.4c0,0,0,0-0.1-0.1
		c-0.4-0.3-0.7-0.6-1-0.9c0,0-0.1-0.1-0.1-0.1c-0.1-0.1-0.2-0.2-0.3-0.3c-0.2-0.1-0.3-0.3-0.5-0.4c-0.1-0.1-0.1-0.1-0.2-0.2l0,0
		c-2.9-2.6-4.7-4.2-4.7-4.2s-0.1-9.7-10.4-27.8c-10.3-18.1-12.9-30.8-9.9-39.5c0.2-0.5,0.3-1,0.5-1.5c0.8-1.5,3.9-8.3-3.1-10.9
		c-10-3.8-32.7-3.9-58.1-11.8c-25.4-7.8-42.5-38.4-44.2-43.7c-1.6-5.1-2.9-2.4-3.6-1c0,0.1-0.1,0.1-0.1,0.2
		c-0.1,0.2-0.2,0.3-0.3,0.5c-0.2,0.3-0.5,0.5-0.8,0.7c-0.1,0-0.1,0.1-0.2,0.1c-0.1,0-0.1,0.1-0.2,0.1c-0.1,0.1-0.2,0.1-0.3,0.2
		c-0.2,0.1-0.3,0.1-0.4,0.2c-0.1,0-0.1,0-0.1,0c0,0,0,0,0,0c-2.1,0.2-3.7,0.5-5.1,1.1c-0.5,0.2-1,0.5-1.5,0.7
		c-0.9,0.5-1.6,1.1-2.3,1.7c-2.6,2.7-3.1,6-5.4,7.1c-0.1,0.1-0.3,0.1-0.4,0.2c-0.3,0.1-0.6,0.2-1,0.2c-0.2,0-0.4,0-0.5,0
		c-0.2,0-0.4,0-0.6,0c0,0-0.1,0-0.1,0c-0.1,0-0.3,0-0.4,0c0,0-0.1,0-0.1,0c-0.1,0-0.2,0-0.3,0c0,0-0.1,0-0.1,0c-0.1,0-0.2,0-0.3,0
		c0,0,0,0-0.1,0c-0.1,0-0.2,0-0.3,0c0,0,0,0,0,0c-0.1,0-0.2,0-0.3,0c0,0,0,0,0,0c-0.1,0-0.2,0-0.3,0.1c0,0,0,0,0,0
		c-2.1,0.5-0.4,1.9-0.4,1.9c17.7,31.5,62.4,46.2,81.6,47.5c19.1,1.3,28.3,5.4,28.3,5.4c0,0,0,0,0,0c3.2,1.4,6,3.1,6.8,4.8
		c2,4.1,7.9,55.2,15.7,71.1c1.5,3,4.4,7.3,8.3,12.3l0,0c0,0.1,0.1,0.1,0.1,0.2c0,0-0.1,0-0.1,0c-0.1,0-0.2-0.1-0.3-0.1
		c-1.3-0.5-2.6-0.9-3.7-1.3l0,0c-4-1.4-6.4-2.3-6.4-2.3s-3.7-9-20-22c-16.3-13-23.4-23.9-23.8-33.1c0-0.1,0-0.2,0-0.2c0,0,0,0,0,0
		s1.8-9.5-6.6-9.5c-10.7-0.1-32.1,7.7-58.6,9.3s-53.3-21.2-56.7-25.5c-3.2-4.1-3.5-1.4-3.7,0.2c0,0.1,0,0.2,0,0.2c0,0,0,0,0,0
		c-0.2,1.5-1.6,2.5-1.6,2.5c-10.2,4.7-7,11.5-9.3,14.6c-0.1,0.1-0.2,0.2-0.3,0.3c-0.3,0.3-0.7,0.6-1.2,0.8c-0.2,0.1-0.3,0.1-0.5,0.2
		c-0.2,0.1-0.4,0.1-0.5,0.2c-0.1,0-0.1,0-0.2,0.1c-0.1,0-0.2,0.1-0.3,0.1c-0.1,0-0.1,0-0.1,0.1c-0.1,0-0.2,0.1-0.3,0.1
		c0,0-0.1,0-0.1,0.1c-0.1,0-0.2,0.1-0.3,0.1c0,0-0.1,0-0.1,0.1c-0.1,0-0.2,0.1-0.2,0.1c0,0-0.1,0-0.1,0c-0.1,0-0.2,0.1-0.2,0.1
		c0,0,0,0,0,0c-0.1,0-0.1,0.1-0.2,0.1c0,0,0,0,0,0c-1.6,1.2,0.3,1.9,0.3,1.9c27.6,23.3,74.6,21.4,93,16c18.4-5.4,27.9-5.1,27.9-5.1
		c0.1-0.1,0.2-0.2,0.2-0.3c3.7,0.1,7.1,0.6,8.5,1.9c3.3,3,27.8,48.4,40.9,60.3c2.4,2.2,7.2,5.3,13.4,9l0,0c0,0,0,0,0,0
		c1,0.6,2.1,1.2,3.1,1.8c0,0,0,0,0,0c1.1,0.6,2.2,1.2,3.3,1.9c0,0,0,0,0,0c4,2.2,8.3,4.6,12.7,6.9c0,0,0,0,0,0
		c1.2,0.7,2.5,1.3,3.8,2c0,0,0,0,0.1,0c1.3,0.7,2.5,1.3,3.8,2c0,0,0,0,0.1,0c1.3,0.7,2.5,1.3,3.8,2c0,0,0,0,0.1,0
		c0.6,0.3,1.2,0.6,1.8,0.9c0,0,0,0,0.1,0c0.6,0.3,1.2,0.6,1.9,1c0,0,0,0,0,0c0.6,0.3,1.2,0.6,1.7,0.9c0.1,0,0.2,0.1,0.2,0.1
		c1.2,0.6,2.3,1.2,3.4,1.7c0.1,0.1,0.2,0.1,0.3,0.2c0.5,0.3,1.1,0.5,1.6,0.8c0,0,0,0,0,0c0.6,0.3,1.1,0.6,1.7,0.8
		c0.1,0,0.2,0.1,0.3,0.1c0.5,0.2,0.9,0.5,1.4,0.7c0.1,0,0.2,0.1,0.3,0.1c0.5,0.3,1,0.5,1.5,0.7c0.1,0.1,0.3,0.1,0.4,0.2
		c0.4,0.2,0.8,0.4,1.2,0.6c0.1,0.1,0.2,0.1,0.4,0.2c0.5,0.2,1,0.5,1.4,0.7c0.1,0,0.2,0.1,0.3,0.1c0.2,0.1,0.3,0.2,0.5,0.3
		c0.3,0.3,0.5,0.6,0.8,0.9c0.1,0.1,0.2,0.2,0.3,0.3c0.2,0.2,0.3,0.4,0.5,0.6c0.1,0.1,0.2,0.2,0.3,0.3c0.2,0.2,0.3,0.3,0.5,0.5
		c0.1,0.1,0.2,0.2,0.3,0.3c0.1,0.2,0.3,0.3,0.4,0.5c0.1,0.1,0.2,0.2,0.3,0.3c0.2,0.3,0.5,0.5,0.7,0.8c0.1,0.1,0.2,0.2,0.3,0.3
		c0.1,0.1,0.2,0.2,0.3,0.3c0.1,0.1,0.2,0.3,0.4,0.4c0.1,0.1,0.2,0.2,0.3,0.3c0.1,0.1,0.2,0.2,0.3,0.3c0.1,0.1,0.2,0.2,0.3,0.4
		c0.1,0.1,0.1,0.2,0.2,0.2c0.1,0.1,0.2,0.2,0.3,0.3c0.1,0.1,0.1,0.1,0.2,0.2c0.2,0.2,0.4,0.4,0.6,0.6c0,0,0.1,0.1,0.1,0.1
		c0.1,0.1,0.2,0.2,0.2,0.2c0.1,0.1,0.1,0.1,0.2,0.2c0.1,0.1,0.1,0.2,0.2,0.2c0,0,0.1,0.1,0.1,0.1c0.1,0.1,0.1,0.1,0.2,0.2
		c0.2,0.2,0.4,0.4,0.5,0.5c0,0,0,0,0,0c0.2,0.2,0.3,0.3,0.3,0.3s2.4,2.4,6.5,6.1c-9.4,3.2-16.7,6.7-16.7,6.7c0,0,0,0.1,0,0.1
		c-0.1,0-0.1,0-0.1,0s-5.4-2.9-10.8-0.8c-1.3,0.5-2.8,0.5-4.1-0.2c-2.4-1.3-6.2-3.2-7-2.8c-1.2,0.5-1.2,0.5-1.2,0.5l6.7,4.8
		c0,0-9.3-3.2-10.5-0.4l8.8,2.8c0,0-8.4-1.8-9.2,1.7l7.8,0.9c0,0-7.5,0.4-7.6,3c0,0,12.3,0.7,13.6,0.4c1.3-0.3,10-0.7,13.5-1.4
		c0,0,0,0,0,0c0.1,0,0.2,0,0.3-0.1c3.6-0.7,21.7-4.2,27.6-3.8c0.8,0.1,1.8,0.1,2.7,0.1c4.4,3.5,9.2,7.1,14.3,10.5
		c0.6,4.2,1.5,8,2.8,11.4c-0.2,0.2-0.4,0.4-0.5,0.6c-1.6,2-1.2,5,0.8,6.6c2,1.6,5,1.2,6.6-0.8s1.2-5-0.8-6.6
		c-1.1-0.8-2.4-1.1-3.6-0.9c-1-2.5-1.7-5.2-2.2-8.2c7.2,4.7,14.7,8.8,21.8,11.4c4.1,1.5,7.5,2.6,10.4,3.3c5.9,2.5,9.8,2.1,14.1,1.6
		c4.5-0.6,11.4-5.1,13.5-14.1c0,0,0,0,0,0l0,0c7.7-4.1,13.1-2.1,13.1-2.1c3.5,6.8,7.6,8.8,11.3,8.5c0.6,0.4,1.1,0.7,1.6,1
		c1.3,0.6,2.8,0.8,4.1,0.7c0,0.4,0.1,0.7,0.4,1l2.5,2C494,356.6,494.7,356.5,495.1,356z M468.6,317.6l-1.7,2.5l0.5,0.4
		c-0.3,0.6-0.6,1.2-0.9,1.7c-0.9,1.9-3,2.9-5,2.5l-0.8-0.2c1.5-3.1-1.5-7.9-1.7-8.1l-2.1,1.8c-0.3-0.5-0.6-0.9-0.7-1.2
		c0.5-0.5,0.9-1,1.3-1.6l7.5,4.6l1.1-1.8c0.8,0,1.6-0.3,2.3-0.7C468.5,317.6,468.6,317.6,468.6,317.6z M452.5,277.8
		c9.3,4.4,14.9,10,16.6,16.8c1.4,5.7-0.3,11.1-2,14.5c-0.5-0.1-1-0.2-1.5-0.1l-3.7-2.2c0.2-1.3,0.3-2.6,0.1-3.9
		c1-4.7-1-9.7-5.3-12.4l-15.9-9.7c0.2-0.4,0.1-0.8-0.3-1l-4.4-2.8c-0.4-0.2-0.9-0.1-1.1,0.3l0,0.1l-4.1-2.5
		C437.7,273.2,445,274.2,452.5,277.8z M390.9,288.4c-0.1-0.2-0.3-0.4-0.4-0.6l6.7,4.1l-1.5,1.8l-1-0.6
		C393.3,291.7,392,290.1,390.9,288.4z M352.6,325.6C352.6,325.6,352.7,325.6,352.6,325.6L352.6,325.6z M488.6,350.5
		c0.2-0.1,0.3-0.2,0.5-0.3c0,0.1,0.1,0.3,0.1,0.4C489.1,350.6,488.8,350.5,488.6,350.5z"/>
	<g>
		<g>
			<circle fill="#FFFFFF" cx="1144.3" cy="896.3" r="6.2"/>
			<circle fill="#ABE1FA" cx="1145.8" cy="897.3" r="3.3"/>
		</g>
		<g>
			<circle fill="#FFFFFF" cx="1133.2" cy="924.8" r="4.3"/>
			<circle fill="#ABE1FA" cx="1134.3" cy="925.5" r="2.3"/>
		</g>
		<g>
			<circle fill="#FFFFFF" cx="1144.6" cy="878.3" r="4.3"/>
			<circle fill="#ABE1FA" cx="1145.7" cy="879" r="2.3"/>
		</g>
		<g>
			<circle fill="#FFFFFF" cx="1144.7" cy="913.5" r="4.3"/>
			<circle fill="#ABE1FA" cx="1145.7" cy="914.2" r="2.3"/>
		</g>
		<g>
			<circle fill="#FFFFFF" cx="1128" cy="842.5" r="4.3"/>
			<circle fill="#ABE1FA" cx="1129" cy="843.2" r="2.3"/>
		</g>
		<g>
			<circle fill="#FFFFFF" cx="1137.2" cy="860.9" r="4.3"/>
			<circle fill="#ABE1FA" cx="1138.2" cy="861.6" r="2.3"/>
		</g>
		<g>
			<circle fill="#FFFFFF" cx="1141" cy="839.3" r="2.8"/>
			<circle fill="#ABE1FA" cx="1141.6" cy="839.7" r="1.5"/>
		</g>
		<g>
			<circle fill="#FFFFFF" cx="1143.4" cy="824.6" r="2.8"/>
			<circle fill="#ABE1FA" cx="1144.1" cy="825.1" r="1.5"/>
		</g>
		<g>
			<circle fill="#FFFFFF" cx="1165.9" cy="839.8" r="2.8"/>
			<circle fill="#ABE1FA" cx="1166.6" cy="840.3" r="1.5"/>
		</g>
		<g>
			<circle fill="#FFFFFF" cx="1158.6" cy="882.3" r="2.8"/>
			<circle fill="#ABE1FA" cx="1159.3" cy="882.8" r="1.5"/>
		</g>
		<g>
			<circle fill="#FFFFFF" cx="1179.1" cy="815.1" r="2.8"/>
			<circle fill="#ABE1FA" cx="1179.7" cy="815.5" r="1.5"/>
		</g>
		<g>
			<circle fill="#FFFFFF" cx="1128.7" cy="600.3" r="2.8"/>
			<circle fill="#ABE1FA" cx="1129.4" cy="600.7" r="1.5"/>
		</g>
		<g>
			<circle fill="#FFFFFF" cx="1104.1" cy="617.8" r="2.8"/>
			<circle fill="#ABE1FA" cx="1104.8" cy="618.3" r="1.5"/>
		</g>
		<g>
			<circle fill="#FFFFFF" cx="1157.8" cy="663.1" r="2.8"/>
			<circle fill="#ABE1FA" cx="1158.5" cy="663.5" r="1.5"/>
		</g>
		<g>
			<circle fill="#FFFFFF" cx="1129.5" cy="901.8" r="2.8"/>
			<circle fill="#ABE1FA" cx="1130.2" cy="902.3" r="1.5"/>
		</g>
		<g>
			<circle fill="#FFFFFF" cx="1136" cy="944.5" r="2.8"/>
			<circle fill="#ABE1FA" cx="1136.7" cy="945" r="1.5"/>
		</g>
		<g>
			<circle fill="#FFFFFF" cx="1125.8" cy="963.8" r="2.8"/>
			<circle fill="#ABE1FA" cx="1126.5" cy="964.2" r="1.5"/>
		</g>
		<g>
			<circle fill="#FFFFFF" cx="1123.6" cy="876.1" r="7.6"/>
			<circle fill="#ABE1FA" cx="1125.4" cy="877.3" r="4"/>
		</g>
		<g>
			<circle fill="#FFFFFF" cx="1161.7" cy="802.3" r="7.6"/>
			<circle fill="#ABE1FA" cx="1163.5" cy="803.5" r="4"/>
		</g>
		<g>
			<circle fill="#FFFFFF" cx="1206.7" cy="737.2" r="7.6"/>
			<circle fill="#ABE1FA" cx="1208.6" cy="738.4" r="4"/>
		</g>
		<g>
			<circle fill="#FFFFFF" cx="1142.8" cy="687.9" r="7.6"/>
			<circle fill="#ABE1FA" cx="1144.6" cy="689.1" r="4"/>
		</g>
		<g>
			<circle fill="#FFFFFF" cx="1151.4" cy="592.3" r="7.6"/>
			<circle fill="#ABE1FA" cx="1153.2" cy="593.5" r="4"/>
		</g>
		<g>
			<circle fill="#FFFFFF" cx="1144.2" cy="770.9" r="7.6"/>
			<circle fill="#ABE1FA" cx="1146.1" cy="772.1" r="4"/>
		</g>
		<g>
			<circle fill="#FFFFFF" cx="1136.1" cy="626.5" r="7.6"/>
			<circle fill="#ABE1FA" cx="1137.9" cy="627.7" r="4"/>
		</g>
		<g>
			<circle fill="#FFFFFF" cx="1116.4" cy="653.6" r="7.6"/>
			<circle fill="#ABE1FA" cx="1118.2" cy="654.8" r="4"/>
		</g>
		<g>
			<circle fill="#FFFFFF" cx="1156.5" cy="827" r="7.6"/>
			<circle fill="#ABE1FA" cx="1158.3" cy="828.2" r="4"/>
		</g>
		<g>
			<circle fill="#FFFFFF" cx="1158.9" cy="857.3" r="9.9"/>
			<circle fill="#ABE1FA" cx="1161.3" cy="858.9" r="5.2"/>
		</g>
		<g>
			<circle fill="#FFFFFF" cx="1179" cy="702" r="9.9"/>
			<circle fill="#ABE1FA" cx="1181.3" cy="703.6" r="5.2"/>
		</g>
		<g>
			<circle fill="#FFFFFF" cx="1108.1" cy="755.1" r="9.9"/>
			<circle fill="#ABE1FA" cx="1110.5" cy="756.7" r="5.2"/>
		</g>
		<g>
			<circle fill="#FFFFFF" cx="1194.1" cy="652.4" r="9.9"/>
			<circle fill="#ABE1FA" cx="1196.5" cy="653.9" r="5.2"/>
		</g>
		<g>
			<circle fill="#FFFFFF" cx="1129.1" cy="808.3" r="9.9"/>
			<circle fill="#ABE1FA" cx="1131.5" cy="809.9" r="5.2"/>
		</g>
		<g>
			<circle fill="#FFFFFF" cx="1140.7" cy="719.8" r="9.9"/>
			<circle fill="#ABE1FA" cx="1143.1" cy="721.4" r="5.2"/>
		</g>
		<g>
			<circle fill="#FFFFFF" cx="1175.2" cy="754.5" r="15.4"/>
			<circle fill="#ABE1FA" cx="1178.9" cy="757" r="8.1"/>
		</g>
		<g>
			<circle fill="#FFFFFF" cx="1161.9" cy="636.8" r="15.4"/>
			<circle fill="#ABE1FA" cx="1165.6" cy="639.2" r="8.1"/>
		</g>
		<g>
			<circle fill="#FFFFFF" cx="1099.6" cy="691.5" r="15.4"/>
			<circle fill="#ABE1FA" cx="1103.3" cy="694" r="8.1"/>
		</g>
	</g>
	<path fill="#5DA9C9" d="M370.1,917.7c4.8,9.5,12.5,14.1,19,20.7s12.4,16.8,11.5,30.5c-0.2,3.7-1,7.5-1.4,11.1h33.8
		c0.9-2.6,1.6-5.2,2-7.9c0.6-3.6,1.1-8,3.2-10c1.4-1.4,3-1,4.5-0.6c9.1,2.4,18.1,4.9,27.2,7.3c3.7,1,7.5,1.9,11.4-0.5
		c3.8-2.4,7.4-9.5,6.3-15.1c-10.7-1.7-21.3-3.4-32-5.2c0.2-5.6,0.5-11.4,2.2-16.8s5.4-10.1,8.7-9.6c2.6,0.4,4.2,3.6,6.1,5.9
		c4.4,5.6,10.6,7,16.5,8.3c3.2,0.7,6.5,1.4,9.9,0.1c3.4-1.3,7-5.1,8.3-10.5c1.8-7.1-0.9-14.1-4.9-16.3s-8.7-0.9-13.2,0.4
		c-2.7,0.8-5.3,1.6-8,2.3c-1.8,0.5-3.7,1.1-5.4,0.5c-4.8-1.7-5.2-14.3-0.7-19.8c3.5-4.2,7.8-3.6,11.5-2.8c5.5,1.2,10.9,2.4,16.4,3.6
		c6.7,1.5,14.5,2.4,20.5-5.5c4.1-5.5,6.3-14.7,5.1-21.9c-1.2-7.1-5.6-11.7-10.5-10.7c-5.2,1-10,7.3-14.3,13.3
		c-4.3,6-8.9,12.5-14.2,14.1c-5.2,1.6-10.7-4.5-9-12.8c1.9-9.3,9.5-11.9,15.3-13.3c4.7-1.1,9.4-3,14.1-5.5c2.5-1.4,5-3,7.2-5.9
		c2.7-3.7,4.4-9,5.8-14.2c3-11.1,5.2-23.3,3.5-33.5c-1.8-10.3-8.9-17.1-15.7-11.9c-7.2,5.6-9.9,20.3-10.2,32.2
		c-0.2,7.6,0,15.5-2.4,22.7c-2.4,7.2-8.8,12.7-12,8.2c-1.1-1.6-1.7-4.2-1.9-6.8c-1.5-15.8,5.4-36,0.1-48.5c-0.8-2-2.1-3.7-3.6-4.1
		c-4.5-1-8.4,8.3-9.8,15.8c-0.8,4.5-1.4,9.1-1.4,13.4c0.2,8.6,2.8,15.7,4.8,23c2,7.4,3.5,16.1,1.3,24.7s-9.6,15.3-13.4,10.3
		c-2.6-3.4-2.4-10.2-2.3-16.1c0.2-11.4-0.7-22.4-2.6-32.7c-0.6-3-1.5-6.3-3.6-6.3c-1.2,0-2.5,1.3-3.5,2.7
		c-6.1,8.7-6.1,23.2-3.3,33.2c2.7,10,7.5,18.2,8.9,29.3c1.6,12-1.3,26.5-7.2,37c-4.2,1.1-6.6-6.1-6.3-12.8
		c0.3-6.7,2.4-13.5,2.8-20.3c0.5-6.8-1.4-14.2-5.6-13.9c-3.9,0.2-7.4,7.5-8,13.9c-0.6,6.4,0.7,12.2,1.5,18.1
		c1.4,9.8,1.4,20.8-1.6,31.2c-2.9,10.3-9.3,19.5-15.9,20.7c-4.8,0.9-9.2-2.6-11.2-8.9c-2-6.2-1.4-14.9,1.4-21.9
		c4.4-10.8,12.6-15.7,20-18c1.6-4.7,3-11.5,0.4-13.3c-1.8-1.2-4.1,1-6,2.9c-4.9,4.7-12.1,7.1-13.7-0.4c-1.5-6.9,3.9-15.5,8.8-17.2
		c4.9-1.7,9.5,0.7,14.3,0.7c0.8,0,1.6-0.1,2.4-0.7c1.4-1.1,2.3-3.5,3-5.7c1.7-5,3.4-10.1,3.9-15.4c0.5-5.3-0.4-10.8-3.1-12.8
		c-3.3-2.5-7.9,0.9-11.5,4.8c-3.6,3.9-7.4,8.7-11.4,9.2c-0.4-8.9,3.3-19.2,8.6-24.2c4.4-4.1,9.5-4.9,13.6-9.9
		c6.2-7.6,6.6-24.2,0.7-28.6c-2,5.3-2.7,11.3-4.7,16.6c-2.1,5.3-6.8,9.4-9.1,5.8c-0.9-1.4-1.1-3.7-1.1-5.9
		c0.1-7.4,2.7-14.9,4.1-22.4c1.9-10.1,1.3-20.7-2.1-28s-9.8-10.5-16.1-7.2c-6.2,3.4-11.7,13.8-11.9,23.7c-0.2,8.1,2.8,14.5,6,19.6
		c3.3,5.1,7.1,9.5,9.2,16.2c2.1,6.6,2.1,16.3-1.7,22.8c-3.7,2.5-7.3-1.2-8.7-6.3s-1.5-11.2-2.4-16.7c-0.9-5.5-3.1-10.8-6.8-11
		c-5.2-0.3-10,10.4-9.7,18.7c0.4,8.3,4.3,14,8.4,18c4.2,4,8.9,7,12.1,12.8c3.2,5.8,4.4,15.5,1.1,23.2c-5.3-2.8-8.1-11.3-11.8-17.8
		c-3.6-6.5-9.8-11.4-15.4-5.9c-2.4,4.6-2.3,11-0.7,15.3c1.6,4.3,4.3,6.8,7,9.3c3.9,3.6,7.8,7.1,11.6,10.7c2.2,2.1,4.5,4.2,6.2,7.3
		c4,7.7,3.3,21.4-1.6,30.8c-4.5,0.9-7.8-4.5-9.6-10.4c-1.8-5.9-2.7-12.8-5.3-17.8c-2.6-5-7.6-7.5-11.6-2.9
		c-2.3,2.7-3.7,7.4-3.4,11.4C368.4,913.7,369.2,915.8,370.1,917.7z"/>
	<path fill="#5DA9C9" d="M907.5,918.4c6.4,5.2,13.2,8.4,19.1,14.9c6.5,7,11.3,17.7,12.2,27.3c-2.2,2.6-7-0.9-9.9-5.4
		c-2.9-4.5-4.7-9.8-7.4-14.4c-2.8-4.6-7.4-8.5-10-6.5c-2.4,2-1.4,8.2,1.2,12.6c2.5,4.4,6,7.6,9.2,11c5.4,5.7,10.4,12.9,13.2,20.9
		c0.2,0.4,0.3,0.9,0.4,1.3h37.2c0.1,0,0.1,0,0.2-0.1c2.8-1,5.8-2.2,7.1-5.5c1.4-3.3,0.4-9.5-2.8-12.7c-7.7,3.8-15.4,7.5-23.1,11.3
		c-2.4-3.7-4.9-7.6-6.2-11.9c-1.3-4.3-1.1-9,1.3-10.2c1.8-0.9,4.4,0.4,6.7,1c5.4,1.6,10-0.3,14.5-2.2c2.4-1,4.9-2.1,6.5-4.5
		s2.2-6.5,0.6-10.6c-2.1-5.4-7-8.7-10.6-8.3c-3.6,0.4-6,3.4-8.3,6.3c-1.4,1.7-2.7,3.4-4.1,5.2c-0.9,1.2-1.9,2.4-3.3,2.8
		c-3.9,1.1-9.9-6.8-9.5-12.5c0.3-4.3,3.4-5.9,6.2-7.1c4.1-1.7,8.1-3.4,12.2-5.2c5-2.1,10.5-5.1,10.7-12.9c0.2-5.5-2.6-12.4-6.7-16.5
		c-4-4.1-9-5-11.7-2.1c-2.9,3-3.2,9.3-3.2,15.1s-0.1,12.2-2.7,15.6c-2.6,3.4-8.9,1.9-11.7-4.2c-3-6.9,0.7-12,3.8-15.6
		c2.5-2.9,4.7-6.3,6.6-10c1-2,1.9-4.2,2-7.1c0.1-3.7-1.3-7.8-2.7-11.8c-3.1-8.5-7.2-17.4-13.1-23.3s-13.6-7-15.6-0.5
		c-2.1,6.9,2.9,17.7,8.1,25.5c3.3,5,7.1,10,8.8,15.8c1.7,5.8,0.1,12.2-4,10.7c-1.5-0.5-3-1.9-4.3-3.5c-8.2-9.5-13-25.8-22.1-31.4
		c-1.5-0.9-3-1.5-4.2-1c-3.3,1.4-1.6,9.2,0.9,14.7c1.5,3.3,3.2,6.5,5.3,9.3c4,5.5,9,8.9,13.7,12.7c4.7,3.8,9.6,8.8,12.1,15.4
		s0.8,14.3-4,12.8c-3.2-1-6.2-5.5-8.9-9.4c-5.1-7.4-10.7-14.2-16.6-20c-1.7-1.7-3.9-3.4-5.2-2.5c-0.8,0.6-1,1.9-1,3.3
		C894.5,903.8,901.1,913.2,907.5,918.4z"/>
	<path fill="#5DA9C9" d="M877.8,980h13.3c-1.5-1.2-3-2.3-4.5-3.1C882.7,974.9,878.4,975.5,877.8,980z"/>
	<path fill="#5DA9C9" d="M853.1,904.5c4.4,1.8,8.9,3,13.3,6.3c4.4,3.3,8.8,9.6,9.3,15.6c-1.3,3.3-5.3,2.5-8.5-0.1
		c-3.2-2.6-6.1-6.5-9.2-9.7c-3.1-3.1-6.9-5.5-9.4-4c-3.5,2.2-1.8,11.3,2.3,16.5c4,5.2,9.2,7.1,13.7,7.8c4.5,0.7,8.9,0.5,13.6,2.7
		c4.7,2.3,9.9,8,11.3,14.5c-4.8,0.6-10.4-3.6-15.7-6.1s-11.5-2.9-12.7,3.2c0.5,4.1,3.5,8.2,6.5,10.2c3,2,5.9,2.4,8.8,2.8
		c4.1,0.5,8.3,1.1,12.4,1.6c2.4,0.3,4.8,0.6,7.3,1.9c4.1,2.1,8,6.9,10.5,12.3h6.8c-0.5-7.1,2.2-12.7,5.3-16.9
		c-1.1-3.8-3.3-8.8-5.8-8.8c-1.7,0-2.2,2.5-2.6,4.6c-1,5.3-4.6,10.1-9.1,6c-4.1-3.8-4.6-11.8-2.2-15.2c2.4-3.4,6.4-3.9,9.6-6.1
		c0.5-0.4,1-0.8,1.2-1.5c0.4-1.3-0.1-3.3-0.7-5.1c-1.2-4-2.4-8.1-4.5-11.7c-2.1-3.6-5.2-6.8-7.9-6.9c-3.3-0.1-4.7,4.2-5.2,8.4
		c-0.6,4.2-0.8,9-3.2,11.2c-4.3-5.6-6.6-13.9-5.5-19.6c0.9-4.7,3.9-7.5,4.3-12.6c0.5-7.8-6.8-18.7-12.6-18.8
		c1.1,4.3,3.4,8.6,4.5,12.9s-0.1,9.2-3.2,7.9c-1.2-0.5-2.4-1.9-3.4-3.3c-3.3-4.8-5-10.9-7.6-16.4c-3.4-7.4-8.6-14-14.1-17.1
		c-5.5-3.1-11.2-2.3-13.7,2.7c-2.5,5-1.3,14.2,3.1,20.8C843.9,899.9,848.7,902.7,853.1,904.5z"/>
	<path fill="#286E87" d="M552.5,945.4c6.4,13.4,19.8,19.9,24,34.6h94.1c-3.1-38.2-4.8-76.7-5.1-115.1c0.1,13.1-8.4,22.8-14.1,33.4
		c-2.1,3.8-3.8,8-5.2,12.4c1.3-23.6,0.2-47.5-3.2-70.7c-0.2,26.9-9.1,52.1-14.3,78c-3.5,17.5-5,37.2-1.5,54.3
		c-5.5-17.1-8.7-35.5-9.2-54.2c-0.9-34,6.2-71.6-7.7-99.9c-9.8,25.9-13.6,55.9-10.8,84.7c-16.5-14.1-7.7-51.7-19.9-72.3
		c-5.2,31.2-9.7,66.6,3.9,92.7c2.2,4.2,4.8,8,6.5,12.6c1.5,4,2.3,8.4,3.1,12.8c-12.9-7.9-26.1-17.3-33-33.9
		c-6.8-16.5-6.1-37.2-13.1-53.6c0.1,16.2,0.1,32.3,0.2,48.5C547.3,921.9,547.5,935,552.5,945.4z M598.5,979.8
		c-1.4-4.8-2.2-9.8-2.5-14.9C596.8,969.9,597.7,974.9,598.5,979.8z"/>
	<path fill="#286E87" d="M1327.4,980c-2.3-32.9-3.6-66-3.9-99.1c0.1,13.1-8.4,22.8-14.1,33.4c-2.1,3.8-3.8,8-5.2,12.4
		c1.3-23.6,0.2-47.5-3.2-70.7c-0.2,26.9-9.1,52.1-14.3,78c-3,14.7-4.5,31-2.8,46H1327.4z"/>
	<path fill="#286E87" d="M1210.5,961.4c3.6,7.5,9.3,12.8,14.4,18.6h58c-4-14.7-6.3-30.2-6.7-45.9c-0.9-34,6.2-71.6-7.7-99.9
		c-9.8,25.9-13.6,55.9-10.8,84.7c-16.5-14.1-7.7-51.7-19.9-72.3c-5.2,31.2-9.7,66.6,3.9,92.7c2.2,4.2,4.8,8,6.5,12.6
		c1.5,4,2.3,8.4,3.1,12.8c-12.9-7.9-26.1-17.3-33-33.9c-6.8-16.5-6.1-37.2-13.1-53.6c0.1,16.2,0.1,32.3,0.2,48.5
		C1205.3,937.9,1205.5,951,1210.5,961.4z"/>
	<g>
		<path fill="#3585A2" d="M108.4,435.8c0,0-8.9-5.5-15.9-4.2l-5.1-2.5l-4.4,2.6l1.2,1.1c0,0-1.4,0.7-3.3,1.6
			c-0.9-0.4-2.7-0.9-4.9,0.1c-2.2,1.1-1.8,2.2-1.3,2.8c-1.3,0.6-2.6,1.3-3.6,1.7c0,0-3.7-0.9-7.3-2c-3.6-1.1-1.1,2-0.4,3.8
			c0.7,1.8-1,5.3,0.1,5.3c1.1,0,5.9-4.3,6.5-3.9c0.3,0.2,2.5,0.9,5.4,1.9c-1.5,1-3.3,2.5-1.6,3.4c2,1.1,5-1.1,6.2-2.1
			c1.8,0.5,3.6,1,5.4,1.4c1.2,0.3,2.5,0.5,3.8,0.6c-1.8,2.1-3.4,4.6-1.4,4.2c2.1-0.4,3.7-2.5,4.5-4.1c4.2-0.1,8.1-1.2,10.7-2.9
			C106.8,442,110.4,437,108.4,435.8z"/>
		<path fill="#3585A2" d="M152.6,456.2c0,0-8.9-5.5-15.9-4.2l-5.1-2.5l-4.4,2.6l1.2,1.1c0,0-1.4,0.7-3.3,1.6
			c-0.9-0.4-2.7-0.9-4.9,0.1c-2.2,1.1-1.8,2.2-1.3,2.8c-1.3,0.6-2.6,1.3-3.6,1.7c0,0-3.7-0.9-7.3-2c-3.6-1.1-1.1,2-0.4,3.8
			c0.7,1.8-1,5.3,0.1,5.3c1.1,0,5.9-4.3,6.5-3.9c0.3,0.2,2.5,0.9,5.4,1.9c-1.5,1-3.3,2.5-1.6,3.4c2,1.1,5-1.1,6.2-2.1
			c1.8,0.5,3.6,1,5.4,1.4c1.2,0.3,2.5,0.5,3.8,0.6c-1.8,2.1-3.4,4.6-1.4,4.2c2.1-0.4,3.7-2.5,4.5-4.1c4.2-0.1,8.1-1.2,10.7-2.9
			C151,462.4,154.6,457.5,152.6,456.2z"/>
		<path fill="#3585A2" d="M174.6,425.8c0,0-8.9-5.5-15.9-4.2l-5.1-2.5l-4.4,2.6l1.2,1.1c0,0-1.4,0.7-3.3,1.6
			c-0.9-0.4-2.7-0.9-4.9,0.1c-2.2,1.1-1.8,2.2-1.3,2.8c-1.3,0.6-2.6,1.3-3.6,1.7c0,0-3.7-0.9-7.3-2c-3.6-1.1-1.1,2-0.4,3.8
			c0.7,1.8-1,5.3,0.1,5.3c1.1,0,5.9-4.3,6.5-3.9c0.3,0.2,2.5,0.9,5.4,1.9c-1.5,1-3.3,2.5-1.6,3.4c2,1.1,5-1.1,6.2-2.1
			c1.8,0.5,3.6,1,5.4,1.4c1.2,0.3,2.5,0.5,3.8,0.6c-1.8,2.1-3.4,4.6-1.4,4.2c2.1-0.4,3.7-2.5,4.5-4.1c4.2-0.1,8.1-1.2,10.7-2.9
			C173,432,176.6,427.1,174.6,425.8z"/>
		<path fill="#3585A2" d="M217.4,445.2c0,0-8.9-5.5-15.9-4.2l-5.1-2.5l-4.4,2.6l1.2,1.1c0,0-1.4,0.7-3.3,1.6
			c-0.9-0.4-2.7-0.9-4.9,0.1c-2.2,1.1-1.8,2.2-1.3,2.8c-1.3,0.6-2.6,1.3-3.6,1.7c0,0-3.7-0.9-7.3-2c-3.6-1.1-1.1,2-0.4,3.8
			s-1,5.3,0.1,5.3c1.1,0,5.9-4.3,6.5-3.9c0.3,0.2,2.5,0.9,5.4,1.9c-1.5,1-3.3,2.5-1.6,3.4c2,1.1,5-1.1,6.2-2.1
			c1.8,0.5,3.6,1,5.4,1.4c1.2,0.3,2.5,0.5,3.8,0.6c-1.8,2.1-3.4,4.6-1.4,4.2c2.1-0.4,3.7-2.5,4.5-4.1c4.2-0.1,8.1-1.2,10.7-2.9
			C215.8,451.3,219.4,446.4,217.4,445.2z"/>
		<path fill="#3585A2" d="M232.5,410.4c0,0-8.9-5.5-15.9-4.2l-5.1-2.5l-4.4,2.6l1.2,1.1c0,0-1.4,0.7-3.3,1.6
			c-0.9-0.4-2.7-0.9-4.9,0.1c-2.2,1.1-1.8,2.2-1.3,2.8c-1.3,0.6-2.6,1.3-3.6,1.7c0,0-3.7-0.9-7.3-2c-3.6-1.1-1.1,2-0.4,3.8
			s-1,5.3,0.1,5.3c1.1,0,5.9-4.3,6.5-3.9c0.3,0.2,2.5,0.9,5.4,1.9c-1.5,1-3.3,2.5-1.6,3.4c2,1.1,5-1.1,6.2-2.1
			c1.8,0.5,3.6,1,5.4,1.4c1.2,0.3,2.5,0.5,3.8,0.6c-1.8,2.1-3.4,4.6-1.4,4.2c2.1-0.4,3.7-2.5,4.5-4.1c4.2-0.1,8.1-1.2,10.7-2.9
			C231,416.6,234.5,411.7,232.5,410.4z"/>
		<path fill="#3585A2" d="M180.6,394.3c0,0-8.9-5.5-15.9-4.2l-5.1-2.5l-4.4,2.6l1.2,1.1c0,0-1.4,0.7-3.3,1.6
			c-0.9-0.4-2.7-0.9-4.9,0.1c-2.2,1.1-1.8,2.2-1.3,2.8c-1.3,0.6-2.6,1.3-3.6,1.7c0,0-3.7-0.9-7.3-2c-3.6-1.1-1.1,2-0.4,3.8
			s-1,5.3,0.1,5.3c1.1,0,5.9-4.3,6.5-3.9c0.3,0.2,2.5,0.9,5.4,1.9c-1.5,1-3.3,2.5-1.6,3.4c2,1.1,5-1.1,6.2-2.1
			c1.8,0.5,3.6,1,5.4,1.4c1.2,0.3,2.5,0.5,3.8,0.6c-1.8,2.1-3.4,4.6-1.4,4.2c2.1-0.4,3.7-2.5,4.5-4.1c4.2-0.1,8.1-1.2,10.7-2.9
			C179,400.4,182.6,395.5,180.6,394.3z"/>
		<path fill="#3585A2" d="M280.4,423.7c0,0-8.9-5.5-15.9-4.2l-5.1-2.5l-4.4,2.6l1.2,1.1c0,0-1.4,0.7-3.3,1.6
			c-0.9-0.4-2.7-0.9-4.9,0.1c-2.2,1.1-1.8,2.2-1.3,2.8c-1.3,0.6-2.6,1.3-3.6,1.7c0,0-3.7-0.9-7.3-2c-3.6-1.1-1.1,2-0.4,3.8
			c0.7,1.8-1,5.3,0.1,5.3c1.1,0,5.9-4.3,6.5-3.9c0.3,0.2,2.5,0.9,5.4,1.9c-1.5,1-3.3,2.5-1.6,3.4c2,1.1,5-1.1,6.2-2.1
			c1.8,0.5,3.6,1,5.4,1.4c1.2,0.3,2.5,0.5,3.8,0.6c-1.8,2.1-3.4,4.6-1.4,4.2c2.1-0.4,3.7-2.5,4.5-4.1c4.2-0.1,8.1-1.2,10.7-2.9
			C278.9,429.9,282.5,424.9,280.4,423.7z"/>
	</g>
	<g>
		<path fill="#3585A2" d="M1057.9,523.8c0,0-8.2-6.4-15.4-5.9l-4.8-3l-4.6,2.1l1.1,1.2c0,0-1.5,0.5-3.5,1.2
			c-0.9-0.5-2.6-1.2-4.9-0.4c-2.3,0.8-2,2-1.6,2.7c-1.4,0.5-2.7,1-3.8,1.3c0,0-3.6-1.3-7-2.7c-3.5-1.4-1.3,1.9-0.8,3.7
			c0.5,1.9-1.6,5.2-0.5,5.3c1.1,0.1,6.3-3.6,6.9-3.2c0.3,0.2,2.4,1.2,5.2,2.4c-1.6,0.8-3.5,2.1-2,3.2c1.9,1.4,5.1-0.5,6.4-1.4
			c1.7,0.7,3.5,1.4,5.2,2c1.2,0.4,2.5,0.8,3.7,1c-2,1.9-3.9,4.2-1.8,4c2.2-0.2,3.9-2.1,4.9-3.6c4.2,0.3,8.2-0.3,11-1.8
			C1055.7,529.8,1059.7,525.3,1057.9,523.8z"/>
		<path fill="#3585A2" d="M1099.7,548.9c0,0-8.2-6.4-15.4-5.9l-4.8-3l-4.6,2.1l1.1,1.2c0,0-1.5,0.5-3.5,1.2
			c-0.9-0.5-2.6-1.2-4.9-0.4c-2.3,0.8-2,2-1.6,2.7c-1.4,0.5-2.7,1-3.8,1.3c0,0-3.6-1.3-7-2.7c-3.5-1.4-1.3,1.9-0.8,3.7
			c0.5,1.9-1.6,5.2-0.5,5.3c1.1,0.1,6.3-3.6,6.9-3.2c0.3,0.2,2.4,1.2,5.2,2.4c-1.6,0.8-3.5,2.1-2,3.2c1.9,1.4,5.1-0.5,6.4-1.4
			c1.7,0.7,3.5,1.4,5.2,2c1.2,0.4,2.5,0.8,3.7,1c-2,1.9-3.9,4.2-1.8,4c2.2-0.2,3.9-2.1,4.9-3.6c4.2,0.3,8.2-0.3,11-1.8
			C1097.5,554.8,1101.5,550.3,1099.7,548.9z"/>
		<path fill="#3585A2" d="M1124.8,520.9c0,0-8.2-6.4-15.4-5.9l-4.8-3l-4.6,2.1l1.1,1.2c0,0-1.5,0.5-3.5,1.2
			c-0.9-0.5-2.6-1.2-4.9-0.4c-2.3,0.8-2,2-1.6,2.7c-1.4,0.5-2.7,1-3.8,1.3c0,0-3.6-1.3-7-2.7c-3.5-1.4-1.3,1.9-0.8,3.7
			c0.5,1.9-1.6,5.2-0.5,5.3c1.1,0.1,6.3-3.6,6.9-3.2c0.3,0.2,2.4,1.2,5.2,2.4c-1.6,0.8-3.5,2.1-2,3.2c1.9,1.4,5.1-0.5,6.4-1.4
			c1.7,0.7,3.5,1.4,5.2,2c1.2,0.4,2.5,0.8,3.7,1c-2,1.9-3.9,4.2-1.8,4c2.2-0.2,3.9-2.1,4.9-3.6c4.2,0.3,8.2-0.3,11-1.8
			C1122.5,526.9,1126.6,522.4,1124.8,520.9z"/>
		<path fill="#3585A2" d="M1165.3,544.7c0,0-8.2-6.4-15.4-5.9l-4.8-3l-4.6,2.1l1.1,1.2c0,0-1.5,0.5-3.5,1.2
			c-0.9-0.5-2.6-1.2-4.9-0.4c-2.3,0.8-2,2-1.6,2.7c-1.4,0.5-2.7,1-3.8,1.3c0,0-3.6-1.3-7-2.7c-3.5-1.4-1.3,1.9-0.8,3.7
			s-1.6,5.2-0.5,5.3c1.1,0.1,6.3-3.6,6.9-3.2c0.3,0.2,2.4,1.2,5.2,2.4c-1.6,0.8-3.5,2.1-2,3.2c1.9,1.4,5.1-0.5,6.4-1.4
			c1.7,0.7,3.5,1.4,5.2,2c1.2,0.4,2.5,0.8,3.7,1c-2,1.9-3.9,4.2-1.8,4c2.2-0.2,3.9-2.1,4.9-3.6c4.2,0.3,8.2-0.3,11-1.8
			C1163.1,550.7,1167.1,546.2,1165.3,544.7z"/>
		<path fill="#3585A2" d="M1184,511.8c0,0-8.2-6.4-15.4-5.9l-4.8-3l-4.6,2.1l1.1,1.2c0,0-1.5,0.5-3.5,1.2c-0.9-0.5-2.6-1.2-4.9-0.4
			c-2.3,0.8-2,2-1.6,2.7c-1.4,0.5-2.7,1-3.8,1.3c0,0-3.6-1.3-7-2.7c-3.5-1.4-1.3,1.9-0.8,3.7c0.5,1.9-1.6,5.2-0.5,5.3
			c1.1,0.1,6.3-3.6,6.9-3.2c0.3,0.2,2.4,1.2,5.2,2.4c-1.6,0.8-3.5,2.1-2,3.2c1.9,1.4,5.1-0.5,6.4-1.4c1.7,0.7,3.5,1.4,5.2,2
			c1.2,0.4,2.5,0.8,3.7,1c-2,1.9-3.9,4.2-1.8,4c2.2-0.2,3.9-2.1,4.9-3.6c4.2,0.3,8.2-0.3,11-1.8
			C1181.8,517.8,1185.9,513.2,1184,511.8z"/>
		<path fill="#3585A2" d="M1134.1,490.2c0,0-8.2-6.4-15.4-5.9l-4.8-3l-4.6,2.1l1.1,1.2c0,0-1.5,0.5-3.5,1.2
			c-0.9-0.5-2.6-1.2-4.9-0.4c-2.3,0.8-2,2-1.6,2.7c-1.4,0.5-2.7,1-3.8,1.3c0,0-3.6-1.3-7-2.7c-3.5-1.4-1.3,1.9-0.8,3.7
			c0.5,1.9-1.6,5.2-0.5,5.3s6.3-3.6,6.9-3.2c0.3,0.2,2.4,1.2,5.2,2.4c-1.6,0.8-3.5,2.1-2,3.2c1.9,1.4,5.1-0.5,6.4-1.4
			c1.7,0.7,3.5,1.4,5.2,2c1.2,0.4,2.5,0.8,3.7,1c-2,1.9-3.9,4.2-1.8,4c2.2-0.2,3.9-2.1,4.9-3.6c4.2,0.3,8.2-0.3,11-1.8
			C1131.9,496.2,1136,491.7,1134.1,490.2z"/>
		<path fill="#3585A2" d="M1230.3,530.1c0,0-8.2-6.4-15.4-5.9l-4.8-3l-4.6,2.1l1.1,1.2c0,0-1.5,0.5-3.5,1.2
			c-0.9-0.5-2.6-1.2-4.9-0.4c-2.3,0.8-2,2-1.6,2.7c-1.4,0.5-2.7,1-3.8,1.3c0,0-3.6-1.3-7-2.7c-3.5-1.4-1.3,1.9-0.8,3.7
			s-1.6,5.2-0.5,5.3c1.1,0.1,6.3-3.6,6.9-3.2c0.3,0.2,2.4,1.2,5.2,2.4c-1.6,0.8-3.5,2.1-2,3.2c1.9,1.4,5.1-0.5,6.4-1.4
			c1.7,0.7,3.5,1.4,5.2,2c1.2,0.4,2.5,0.8,3.7,1c-2,1.9-3.9,4.2-1.8,4c2.2-0.2,3.9-2.1,4.9-3.6c4.2,0.3,8.2-0.3,11-1.8
			C1228,536,1232.1,531.5,1230.3,530.1z"/>
	</g>
	<g>
		<path fill="#3585A2" d="M658.3,256.7c0,0-12.3-7.7-22-5.8l-7-3.5l-6,3.6l1.6,1.5c0,0-1.9,0.9-4.6,2.2c-1.3-0.6-3.7-1.2-6.7,0.2
			c-3.1,1.5-2.5,3-1.8,3.9c-1.9,0.9-3.6,1.7-5,2.4c0,0-5.1-1.3-10.1-2.7c-5-1.5-1.5,2.8-0.5,5.2c1,2.5-1.4,7.3,0.1,7.4
			s8.2-5.9,9-5.4c0.4,0.2,3.4,1.3,7.5,2.6c-2.1,1.4-4.5,3.5-2.3,4.7c2.8,1.6,6.9-1.5,8.5-2.8c2.5,0.7,5,1.4,7.4,2
			c1.7,0.4,3.5,0.7,5.2,0.8c-2.4,2.9-4.7,6.3-1.9,5.8c3-0.6,5.1-3.5,6.2-5.7c5.8-0.2,11.2-1.6,14.8-4.1
			C656.1,265.3,661.1,258.4,658.3,256.7z"/>
		<path fill="#3585A2" d="M719.4,285c0,0-12.3-7.7-22-5.8l-7-3.5l-6,3.6l1.6,1.5c0,0-1.9,0.9-4.6,2.2c-1.3-0.6-3.7-1.2-6.7,0.2
			c-3.1,1.5-2.5,3-1.8,3.9c-1.9,0.9-3.6,1.7-5,2.4c0,0-5.1-1.3-10.1-2.7c-5-1.5-1.5,2.8-0.5,5.2c1,2.5-1.4,7.3,0.1,7.4
			s8.2-5.9,9-5.4c0.4,0.2,3.4,1.3,7.5,2.6c-2.1,1.4-4.5,3.5-2.3,4.7c2.8,1.6,6.9-1.5,8.5-2.8c2.5,0.7,5,1.4,7.4,2
			c1.7,0.4,3.5,0.7,5.2,0.8c-2.4,2.9-4.7,6.3-1.9,5.8c3-0.6,5.1-3.5,6.2-5.7c5.8-0.2,11.2-1.6,14.8-4.1
			C717.3,293.5,722.2,286.7,719.4,285z"/>
		<path fill="#3585A2" d="M749.9,242.9c0,0-12.3-7.7-22-5.8l-7-3.5l-6,3.6l1.6,1.5c0,0-1.9,0.9-4.6,2.2c-1.3-0.6-3.7-1.2-6.7,0.2
			c-3.1,1.5-2.5,3-1.8,3.9c-1.9,0.9-3.6,1.7-5,2.4c0,0-5.1-1.3-10.1-2.7c-5-1.5-1.5,2.8-0.5,5.2c1,2.5-1.4,7.3,0.1,7.4
			s8.2-5.9,9-5.4c0.4,0.2,3.4,1.3,7.5,2.6c-2.1,1.4-4.5,3.5-2.3,4.7c2.8,1.6,6.9-1.5,8.5-2.8c2.5,0.7,5,1.4,7.4,2
			c1.7,0.4,3.5,0.7,5.2,0.8c-2.4,2.9-4.7,6.3-1.9,5.8c3-0.6,5.1-3.5,6.2-5.7c5.8-0.2,11.2-1.6,14.8-4.1
			C747.7,251.5,752.6,244.6,749.9,242.9z"/>
		<path fill="#3585A2" d="M809.1,269.7c0,0-12.3-7.7-22-5.8l-7-3.5l-6,3.6l1.6,1.5c0,0-1.9,0.9-4.6,2.2c-1.3-0.6-3.7-1.2-6.7,0.2
			c-3.1,1.5-2.5,3-1.8,3.9c-1.9,0.9-3.6,1.7-5,2.4c0,0-5.1-1.3-10.1-2.7c-5-1.5-1.5,2.8-0.5,5.2c1,2.5-1.4,7.3,0.1,7.4
			c1.5,0,8.2-5.9,9-5.4c0.4,0.2,3.4,1.3,7.5,2.6c-2.1,1.4-4.5,3.5-2.3,4.7c2.8,1.6,6.9-1.5,8.5-2.8c2.5,0.7,5,1.4,7.4,2
			c1.7,0.4,3.5,0.7,5.2,0.8c-2.4,2.9-4.7,6.3-1.9,5.8c3-0.6,5.1-3.5,6.2-5.7c5.8-0.2,11.2-1.6,14.8-4.1
			C806.9,278.2,811.8,271.4,809.1,269.7z"/>
		<path fill="#3585A2" d="M830,221.6c0,0-12.3-7.7-22-5.8l-7-3.5l-6,3.6l1.6,1.5c0,0-1.9,0.9-4.6,2.2c-1.3-0.6-3.7-1.2-6.7,0.2
			c-3.1,1.5-2.5,3-1.8,3.9c-1.9,0.9-3.6,1.7-5,2.4c0,0-5.1-1.3-10.1-2.7c-5-1.5-1.5,2.8-0.5,5.2c1,2.5-1.4,7.3,0.1,7.4
			c1.5,0,8.2-5.9,9-5.4c0.4,0.2,3.4,1.3,7.5,2.6c-2.1,1.4-4.5,3.5-2.3,4.7c2.8,1.6,6.9-1.5,8.5-2.8c2.5,0.7,5,1.4,7.4,2
			c1.7,0.4,3.5,0.7,5.2,0.8c-2.4,2.9-4.7,6.3-1.9,5.8c3-0.6,5.1-3.5,6.2-5.7c5.8-0.2,11.2-1.6,14.8-4.1
			C827.9,230.2,832.8,223.3,830,221.6z"/>
		<path fill="#3585A2" d="M758.2,199.3c0,0-12.3-7.7-22-5.8l-7-3.5l-6,3.6l1.6,1.5c0,0-1.9,0.9-4.6,2.2c-1.3-0.6-3.7-1.2-6.7,0.2
			c-3.1,1.5-2.5,3-1.8,3.9c-1.9,0.9-3.6,1.7-5,2.4c0,0-5.1-1.3-10.1-2.7c-5-1.5-1.5,2.8-0.5,5.2c1,2.5-1.4,7.3,0.1,7.4
			c1.5,0,8.2-5.9,9-5.4c0.4,0.2,3.4,1.3,7.5,2.6c-2.1,1.4-4.5,3.5-2.3,4.7c2.8,1.6,6.9-1.5,8.5-2.8c2.5,0.7,5,1.4,7.4,2
			c1.7,0.4,3.5,0.7,5.2,0.8c-2.4,2.9-4.7,6.3-1.9,5.8c3-0.6,5.1-3.5,6.2-5.7c5.8-0.2,11.2-1.6,14.8-4.1
			C756,207.8,761,201,758.2,199.3z"/>
		<path fill="#3585A2" d="M896.3,240c0,0-12.3-7.7-22-5.8l-7-3.5l-6,3.6l1.6,1.5c0,0-1.9,0.9-4.6,2.2c-1.3-0.6-3.7-1.2-6.7,0.2
			c-3.1,1.5-2.5,3-1.8,3.9c-1.9,0.9-3.6,1.7-5,2.4c0,0-5.1-1.3-10.1-2.7c-5-1.5-1.5,2.8-0.5,5.2c1,2.5-1.4,7.3,0.1,7.4
			c1.5,0,8.2-5.9,9-5.4c0.4,0.2,3.4,1.3,7.5,2.6c-2.1,1.4-4.5,3.5-2.3,4.7c2.8,1.6,6.9-1.5,8.5-2.8c2.5,0.7,5,1.4,7.4,2
			c1.7,0.4,3.5,0.7,5.2,0.8c-2.4,2.9-4.7,6.3-1.9,5.8c3-0.6,5.1-3.5,6.2-5.7c5.8-0.2,11.2-1.6,14.8-4.1
			C894.1,248.5,899.1,241.7,896.3,240z"/>
	</g>
	<g>
		<g>
			<circle fill="#FFFFFF" cx="117.3" cy="742.2" r="4.4"/>
			<circle fill="#ABE1FA" cx="118.3" cy="742.9" r="2.3"/>
		</g>
		<g>
			<circle fill="#FFFFFF" cx="109.5" cy="762.2" r="3"/>
			<circle fill="#ABE1FA" cx="110.3" cy="762.7" r="1.6"/>
		</g>
		<g>
			<circle fill="#FFFFFF" cx="117.5" cy="729.6" r="3"/>
			<circle fill="#ABE1FA" cx="118.2" cy="730.1" r="1.6"/>
		</g>
		<g>
			<circle fill="#FFFFFF" cx="117.6" cy="754.3" r="3"/>
			<circle fill="#ABE1FA" cx="118.3" cy="754.7" r="1.6"/>
		</g>
		<g>
			<circle fill="#FFFFFF" cx="105.9" cy="704.5" r="3"/>
			<circle fill="#ABE1FA" cx="106.6" cy="705" r="1.6"/>
		</g>
		<g>
			<circle fill="#FFFFFF" cx="112.3" cy="717.4" r="3"/>
			<circle fill="#ABE1FA" cx="113" cy="717.9" r="1.6"/>
		</g>
		<g>
			<circle fill="#FFFFFF" cx="114.9" cy="702.3" r="2"/>
			<circle fill="#ABE1FA" cx="115.4" cy="702.6" r="1"/>
		</g>
		<g>
			<circle fill="#FFFFFF" cx="116.7" cy="692" r="2"/>
			<circle fill="#ABE1FA" cx="117.1" cy="692.3" r="1"/>
		</g>
		<g>
			<circle fill="#FFFFFF" cx="132.4" cy="702.7" r="2"/>
			<circle fill="#ABE1FA" cx="132.9" cy="703" r="1"/>
		</g>
		<g>
			<circle fill="#FFFFFF" cx="127.3" cy="732.4" r="2"/>
			<circle fill="#ABE1FA" cx="127.8" cy="732.7" r="1"/>
		</g>
		<g>
			<circle fill="#FFFFFF" cx="141.6" cy="685.3" r="2"/>
			<circle fill="#ABE1FA" cx="142.1" cy="685.6" r="1"/>
		</g>
		<g>
			<circle fill="#FFFFFF" cx="106.4" cy="534.9" r="2"/>
			<circle fill="#ABE1FA" cx="106.8" cy="535.2" r="1"/>
		</g>
		<g>
			<circle fill="#FFFFFF" cx="89.1" cy="547.2" r="2"/>
			<circle fill="#ABE1FA" cx="89.6" cy="547.5" r="1"/>
		</g>
		<g>
			<circle fill="#FFFFFF" cx="126.7" cy="578.9" r="2"/>
			<circle fill="#ABE1FA" cx="127.2" cy="579.2" r="1"/>
		</g>
		<g>
			<circle fill="#FFFFFF" cx="106.9" cy="746.1" r="2"/>
			<circle fill="#ABE1FA" cx="107.4" cy="746.4" r="1"/>
		</g>
		<g>
			<circle fill="#FFFFFF" cx="111.5" cy="776" r="2"/>
			<circle fill="#ABE1FA" cx="112" cy="776.3" r="1"/>
		</g>
		<g>
			<circle fill="#FFFFFF" cx="104.3" cy="789.5" r="2"/>
			<circle fill="#ABE1FA" cx="104.8" cy="789.8" r="1"/>
		</g>
		<g>
			<circle fill="#FFFFFF" cx="102.8" cy="728.1" r="5.3"/>
			<circle fill="#ABE1FA" cx="104.1" cy="728.9" r="2.8"/>
		</g>
		<g>
			<circle fill="#FFFFFF" cx="129.4" cy="676.3" r="5.3"/>
			<circle fill="#ABE1FA" cx="130.7" cy="677.2" r="2.8"/>
		</g>
		<g>
			<circle fill="#FFFFFF" cx="161" cy="630.8" r="5.3"/>
			<circle fill="#ABE1FA" cx="162.3" cy="631.6" r="2.8"/>
		</g>
		<g>
			<circle fill="#FFFFFF" cx="116.2" cy="596.2" r="5.3"/>
			<circle fill="#ABE1FA" cx="117.5" cy="597.1" r="2.8"/>
		</g>
		<g>
			<circle fill="#FFFFFF" cx="122.2" cy="529.3" r="5.3"/>
			<circle fill="#ABE1FA" cx="123.5" cy="530.1" r="2.8"/>
		</g>
		<g>
			<circle fill="#FFFFFF" cx="117.2" cy="654.4" r="5.3"/>
			<circle fill="#ABE1FA" cx="118.5" cy="655.2" r="2.8"/>
		</g>
		<g>
			<circle fill="#FFFFFF" cx="111.5" cy="553.2" r="5.3"/>
			<circle fill="#ABE1FA" cx="112.8" cy="554.1" r="2.8"/>
		</g>
		<g>
			<circle fill="#FFFFFF" cx="97.7" cy="572.2" r="5.3"/>
			<circle fill="#ABE1FA" cx="99" cy="573" r="2.8"/>
		</g>
		<g>
			<circle fill="#FFFFFF" cx="125.8" cy="693.7" r="5.3"/>
			<circle fill="#ABE1FA" cx="127.1" cy="694.5" r="2.8"/>
		</g>
		<g>
			<circle fill="#FFFFFF" cx="127.5" cy="714.9" r="6.9"/>
			<circle fill="#ABE1FA" cx="129.2" cy="716" r="3.7"/>
		</g>
		<g>
			<circle fill="#FFFFFF" cx="141.6" cy="606.1" r="6.9"/>
			<circle fill="#ABE1FA" cx="143.2" cy="607.2" r="3.7"/>
		</g>
		<g>
			<circle fill="#FFFFFF" cx="91.9" cy="643.3" r="6.9"/>
			<circle fill="#ABE1FA" cx="93.6" cy="644.4" r="3.7"/>
		</g>
		<g>
			<circle fill="#FFFFFF" cx="152.2" cy="571.3" r="6.9"/>
			<circle fill="#ABE1FA" cx="153.8" cy="572.4" r="3.7"/>
		</g>
		<g>
			<circle fill="#FFFFFF" cx="106.6" cy="680.6" r="6.9"/>
			<circle fill="#ABE1FA" cx="108.3" cy="681.7" r="3.7"/>
		</g>
		<g>
			<circle fill="#FFFFFF" cx="114.8" cy="618.6" r="6.9"/>
			<circle fill="#ABE1FA" cx="116.5" cy="619.7" r="3.7"/>
		</g>
		<g>
			<circle fill="#FFFFFF" cx="138.9" cy="642.9" r="10.8"/>
			<circle fill="#ABE1FA" cx="141.5" cy="644.6" r="5.7"/>
		</g>
		<g>
			<circle fill="#FFFFFF" cx="129.6" cy="560.4" r="10.8"/>
			<circle fill="#ABE1FA" cx="132.2" cy="562.1" r="5.7"/>
		</g>
		<g>
			<circle fill="#FFFFFF" cx="86" cy="598.8" r="10.8"/>
			<circle fill="#ABE1FA" cx="88.6" cy="600.5" r="5.7"/>
		</g>
	</g>
	<g>
		<g>
			<circle fill="#FFFFFF" cx="1228" cy="478.6" r="2"/>
			<circle fill="#ABE1FA" cx="1228.4" cy="478.9" r="1"/>
		</g>
		<g>
			<circle fill="#FFFFFF" cx="1224.5" cy="487.6" r="1.4"/>
			<circle fill="#ABE1FA" cx="1224.8" cy="487.8" r="0.7"/>
		</g>
		<g>
			<circle fill="#FFFFFF" cx="1228.1" cy="473" r="1.4"/>
			<circle fill="#ABE1FA" cx="1228.4" cy="473.2" r="0.7"/>
		</g>
		<g>
			<circle fill="#FFFFFF" cx="1228.1" cy="484" r="1.4"/>
			<circle fill="#ABE1FA" cx="1228.4" cy="484.2" r="0.7"/>
		</g>
		<g>
			<circle fill="#FFFFFF" cx="1222.8" cy="461.8" r="1.4"/>
			<circle fill="#ABE1FA" cx="1223.2" cy="462" r="0.7"/>
		</g>
		<g>
			<circle fill="#FFFFFF" cx="1225.7" cy="467.5" r="1.4"/>
			<circle fill="#ABE1FA" cx="1226" cy="467.8" r="0.7"/>
		</g>
		<g>
			<circle fill="#FFFFFF" cx="1226.9" cy="460.8" r="0.9"/>
			<circle fill="#ABE1FA" cx="1227.1" cy="460.9" r="0.5"/>
		</g>
		<g>
			<circle fill="#FFFFFF" cx="1227.7" cy="456.2" r="0.9"/>
			<circle fill="#ABE1FA" cx="1227.9" cy="456.3" r="0.5"/>
		</g>
		<g>
			<circle fill="#FFFFFF" cx="1234.7" cy="460.9" r="0.9"/>
			<circle fill="#ABE1FA" cx="1234.9" cy="461.1" r="0.5"/>
		</g>
		<g>
			<circle fill="#FFFFFF" cx="1232.4" cy="474.3" r="0.9"/>
			<circle fill="#ABE1FA" cx="1232.6" cy="474.4" r="0.5"/>
		</g>
		<g>
			<circle fill="#FFFFFF" cx="1238.8" cy="453.2" r="0.9"/>
			<circle fill="#ABE1FA" cx="1239.1" cy="453.3" r="0.5"/>
		</g>
		<g>
			<circle fill="#FFFFFF" cx="1223.1" cy="385.8" r="0.9"/>
			<circle fill="#ABE1FA" cx="1223.3" cy="386" r="0.5"/>
		</g>
		<g>
			<circle fill="#FFFFFF" cx="1215.4" cy="391.4" r="0.9"/>
			<circle fill="#ABE1FA" cx="1215.6" cy="391.5" r="0.5"/>
		</g>
		<g>
			<circle fill="#FFFFFF" cx="1232.2" cy="405.5" r="0.9"/>
			<circle fill="#ABE1FA" cx="1232.4" cy="405.7" r="0.5"/>
		</g>
		<g>
			<circle fill="#FFFFFF" cx="1223.3" cy="480.4" r="0.9"/>
			<circle fill="#ABE1FA" cx="1223.5" cy="480.5" r="0.5"/>
		</g>
		<g>
			<circle fill="#FFFFFF" cx="1225.4" cy="493.8" r="0.9"/>
			<circle fill="#ABE1FA" cx="1225.6" cy="493.9" r="0.5"/>
		</g>
		<g>
			<circle fill="#FFFFFF" cx="1222.2" cy="499.8" r="0.9"/>
			<circle fill="#ABE1FA" cx="1222.4" cy="499.9" r="0.5"/>
		</g>
		<g>
			<circle fill="#FFFFFF" cx="1221.5" cy="472.3" r="2.4"/>
			<circle fill="#ABE1FA" cx="1222" cy="472.7" r="1.3"/>
		</g>
		<g>
			<circle fill="#FFFFFF" cx="1233.4" cy="449.2" r="2.4"/>
			<circle fill="#ABE1FA" cx="1234" cy="449.5" r="1.3"/>
		</g>
		<g>
			<circle fill="#FFFFFF" cx="1247.5" cy="428.8" r="2.4"/>
			<circle fill="#ABE1FA" cx="1248.1" cy="429.2" r="1.3"/>
		</g>
		<g>
			<circle fill="#FFFFFF" cx="1227.5" cy="413.3" r="2.4"/>
			<circle fill="#ABE1FA" cx="1228" cy="413.7" r="1.3"/>
		</g>
		<g>
			<circle fill="#FFFFFF" cx="1230.2" cy="383.3" r="2.4"/>
			<circle fill="#ABE1FA" cx="1230.7" cy="383.7" r="1.3"/>
		</g>
		<g>
			<circle fill="#FFFFFF" cx="1227.9" cy="439.3" r="2.4"/>
			<circle fill="#ABE1FA" cx="1228.5" cy="439.7" r="1.3"/>
		</g>
		<g>
			<circle fill="#FFFFFF" cx="1225.4" cy="394.1" r="2.4"/>
			<circle fill="#ABE1FA" cx="1226" cy="394.5" r="1.3"/>
		</g>
		<g>
			<circle fill="#FFFFFF" cx="1219.2" cy="402.5" r="2.4"/>
			<circle fill="#ABE1FA" cx="1219.8" cy="402.9" r="1.3"/>
		</g>
		<g>
			<circle fill="#FFFFFF" cx="1231.8" cy="456.9" r="2.4"/>
			<circle fill="#ABE1FA" cx="1232.4" cy="457.3" r="1.3"/>
		</g>
		<g>
			<circle fill="#FFFFFF" cx="1232.5" cy="466.4" r="3.1"/>
			<circle fill="#ABE1FA" cx="1233.3" cy="466.9" r="1.6"/>
		</g>
		<g>
			<circle fill="#FFFFFF" cx="1238.8" cy="417.7" r="3.1"/>
			<circle fill="#ABE1FA" cx="1239.6" cy="418.2" r="1.6"/>
		</g>
		<g>
			<circle fill="#FFFFFF" cx="1216.6" cy="434.4" r="3.1"/>
			<circle fill="#ABE1FA" cx="1217.3" cy="434.9" r="1.6"/>
		</g>
		<g>
			<circle fill="#FFFFFF" cx="1243.6" cy="402.2" r="3.1"/>
			<circle fill="#ABE1FA" cx="1244.3" cy="402.7" r="1.6"/>
		</g>
		<g>
			<circle fill="#FFFFFF" cx="1223.2" cy="451.1" r="3.1"/>
			<circle fill="#ABE1FA" cx="1223.9" cy="451.5" r="1.6"/>
		</g>
		<g>
			<circle fill="#FFFFFF" cx="1226.8" cy="423.3" r="3.1"/>
			<circle fill="#ABE1FA" cx="1227.6" cy="423.8" r="1.6"/>
		</g>
		<g>
			<circle fill="#FFFFFF" cx="1237.6" cy="434.2" r="4.8"/>
			<circle fill="#ABE1FA" cx="1238.8" cy="435" r="2.5"/>
		</g>
		<g>
			<circle fill="#FFFFFF" cx="1233.5" cy="397.3" r="4.8"/>
			<circle fill="#ABE1FA" cx="1234.6" cy="398" r="2.5"/>
		</g>
		<g>
			<circle fill="#FFFFFF" cx="1213.9" cy="414.4" r="4.8"/>
			<circle fill="#ABE1FA" cx="1215.1" cy="415.2" r="2.5"/>
		</g>
	</g>
	<g>
		<g>
			<circle fill="#FFFFFF" cx="882.5" cy="197.7" r="2"/>
			<circle fill="#ABE1FA" cx="883" cy="198" r="1"/>
		</g>
		<g>
			<circle fill="#FFFFFF" cx="879" cy="206.7" r="1.4"/>
			<circle fill="#ABE1FA" cx="879.4" cy="206.9" r="0.7"/>
		</g>
		<g>
			<circle fill="#FFFFFF" cx="882.6" cy="192.1" r="1.4"/>
			<circle fill="#ABE1FA" cx="882.9" cy="192.3" r="0.7"/>
		</g>
		<g>
			<circle fill="#FFFFFF" cx="882.6" cy="203.1" r="1.4"/>
			<circle fill="#ABE1FA" cx="883" cy="203.3" r="0.7"/>
		</g>
		<g>
			<circle fill="#FFFFFF" cx="877.4" cy="180.9" r="1.4"/>
			<circle fill="#ABE1FA" cx="877.7" cy="181.1" r="0.7"/>
		</g>
		<g>
			<circle fill="#FFFFFF" cx="880.3" cy="186.6" r="1.4"/>
			<circle fill="#ABE1FA" cx="880.6" cy="186.8" r="0.7"/>
		</g>
		<g>
			<circle fill="#FFFFFF" cx="881.5" cy="179.8" r="0.9"/>
			<circle fill="#ABE1FA" cx="881.7" cy="180" r="0.5"/>
		</g>
		<g>
			<circle fill="#FFFFFF" cx="882.2" cy="175.2" r="0.9"/>
			<circle fill="#ABE1FA" cx="882.5" cy="175.4" r="0.5"/>
		</g>
		<g>
			<circle fill="#FFFFFF" cx="889.3" cy="180" r="0.9"/>
			<circle fill="#ABE1FA" cx="889.5" cy="180.2" r="0.5"/>
		</g>
		<g>
			<circle fill="#FFFFFF" cx="887" cy="193.3" r="0.9"/>
			<circle fill="#ABE1FA" cx="887.2" cy="193.5" r="0.5"/>
		</g>
		<g>
			<circle fill="#FFFFFF" cx="893.4" cy="172.3" r="0.9"/>
			<circle fill="#ABE1FA" cx="893.6" cy="172.4" r="0.5"/>
		</g>
		<g>
			<circle fill="#FFFFFF" cx="877.6" cy="104.9" r="0.9"/>
			<circle fill="#ABE1FA" cx="877.9" cy="105.1" r="0.5"/>
		</g>
		<g>
			<circle fill="#FFFFFF" cx="869.9" cy="110.4" r="0.9"/>
			<circle fill="#ABE1FA" cx="870.1" cy="110.6" r="0.5"/>
		</g>
		<g>
			<circle fill="#FFFFFF" cx="886.7" cy="124.6" r="0.9"/>
			<circle fill="#ABE1FA" cx="887" cy="124.8" r="0.5"/>
		</g>
		<g>
			<circle fill="#FFFFFF" cx="877.9" cy="199.4" r="0.9"/>
			<circle fill="#ABE1FA" cx="878.1" cy="199.6" r="0.5"/>
		</g>
		<g>
			<circle fill="#FFFFFF" cx="879.9" cy="212.8" r="0.9"/>
			<circle fill="#ABE1FA" cx="880.1" cy="213" r="0.5"/>
		</g>
		<g>
			<circle fill="#FFFFFF" cx="876.7" cy="218.9" r="0.9"/>
			<circle fill="#ABE1FA" cx="876.9" cy="219" r="0.5"/>
		</g>
		<g>
			<circle fill="#FFFFFF" cx="876" cy="191.4" r="2.4"/>
			<circle fill="#ABE1FA" cx="876.6" cy="191.8" r="1.3"/>
		</g>
		<g>
			<circle fill="#FFFFFF" cx="888" cy="168.2" r="2.4"/>
			<circle fill="#ABE1FA" cx="888.5" cy="168.6" r="1.3"/>
		</g>
		<g>
			<circle fill="#FFFFFF" cx="902.1" cy="147.9" r="2.4"/>
			<circle fill="#ABE1FA" cx="902.7" cy="148.2" r="1.3"/>
		</g>
		<g>
			<circle fill="#FFFFFF" cx="882" cy="132.4" r="2.4"/>
			<circle fill="#ABE1FA" cx="882.6" cy="132.8" r="1.3"/>
		</g>
		<g>
			<circle fill="#FFFFFF" cx="884.7" cy="102.4" r="2.4"/>
			<circle fill="#ABE1FA" cx="885.3" cy="102.8" r="1.3"/>
		</g>
		<g>
			<circle fill="#FFFFFF" cx="882.5" cy="158.4" r="2.4"/>
			<circle fill="#ABE1FA" cx="883.1" cy="158.8" r="1.3"/>
		</g>
		<g>
			<circle fill="#FFFFFF" cx="880" cy="113.2" r="2.4"/>
			<circle fill="#ABE1FA" cx="880.5" cy="113.5" r="1.3"/>
		</g>
		<g>
			<circle fill="#FFFFFF" cx="873.8" cy="121.6" r="2.4"/>
			<circle fill="#ABE1FA" cx="874.3" cy="122" r="1.3"/>
		</g>
		<g>
			<circle fill="#FFFFFF" cx="886.3" cy="176" r="2.4"/>
			<circle fill="#ABE1FA" cx="886.9" cy="176.4" r="1.3"/>
		</g>
		<g>
			<circle fill="#FFFFFF" cx="887.1" cy="185.5" r="3.1"/>
			<circle fill="#ABE1FA" cx="887.8" cy="186" r="1.6"/>
		</g>
		<g>
			<circle fill="#FFFFFF" cx="893.4" cy="136.8" r="3.1"/>
			<circle fill="#ABE1FA" cx="894.1" cy="137.3" r="1.6"/>
		</g>
		<g>
			<circle fill="#FFFFFF" cx="871.2" cy="153.5" r="3.1"/>
			<circle fill="#ABE1FA" cx="871.9" cy="153.9" r="1.6"/>
		</g>
		<g>
			<circle fill="#FFFFFF" cx="898.1" cy="121.2" r="3.1"/>
			<circle fill="#ABE1FA" cx="898.9" cy="121.7" r="1.6"/>
		</g>
		<g>
			<circle fill="#FFFFFF" cx="877.8" cy="170.1" r="3.1"/>
			<circle fill="#ABE1FA" cx="878.5" cy="170.6" r="1.6"/>
		</g>
		<g>
			<circle fill="#FFFFFF" cx="881.4" cy="142.4" r="3.1"/>
			<circle fill="#ABE1FA" cx="882.2" cy="142.9" r="1.6"/>
		</g>
		<g>
			<circle fill="#FFFFFF" cx="892.2" cy="153.3" r="4.8"/>
			<circle fill="#ABE1FA" cx="893.4" cy="154" r="2.5"/>
		</g>
		<g>
			<circle fill="#FFFFFF" cx="888" cy="116.4" r="4.8"/>
			<circle fill="#ABE1FA" cx="889.2" cy="117.1" r="2.5"/>
		</g>
		<g>
			<circle fill="#FFFFFF" cx="868.5" cy="133.5" r="4.8"/>
			<circle fill="#ABE1FA" cx="869.7" cy="134.3" r="2.5"/>
		</g>
	</g>
	<g>
		<g>
			<circle fill="#FFFFFF" cx="251.9" cy="387" r="2"/>
			<circle fill="#ABE1FA" cx="252.4" cy="387.3" r="1"/>
		</g>
		<g>
			<circle fill="#FFFFFF" cx="248.4" cy="395.9" r="1.4"/>
			<circle fill="#ABE1FA" cx="248.7" cy="396.1" r="0.7"/>
		</g>
		<g>
			<circle fill="#FFFFFF" cx="252" cy="381.3" r="1.4"/>
			<circle fill="#ABE1FA" cx="252.3" cy="381.5" r="0.7"/>
		</g>
		<g>
			<circle fill="#FFFFFF" cx="252" cy="392.3" r="1.4"/>
			<circle fill="#ABE1FA" cx="252.3" cy="392.6" r="0.7"/>
		</g>
		<g>
			<circle fill="#FFFFFF" cx="246.8" cy="370.1" r="1.4"/>
			<circle fill="#ABE1FA" cx="247.1" cy="370.3" r="0.7"/>
		</g>
		<g>
			<circle fill="#FFFFFF" cx="249.6" cy="375.9" r="1.4"/>
			<circle fill="#ABE1FA" cx="250" cy="376.1" r="0.7"/>
		</g>
		<g>
			<circle fill="#FFFFFF" cx="250.8" cy="369.1" r="0.9"/>
			<circle fill="#ABE1FA" cx="251" cy="369.2" r="0.5"/>
		</g>
		<g>
			<circle fill="#FFFFFF" cx="251.6" cy="364.5" r="0.9"/>
			<circle fill="#ABE1FA" cx="251.8" cy="364.6" r="0.5"/>
		</g>
		<g>
			<circle fill="#FFFFFF" cx="258.7" cy="369.3" r="0.9"/>
			<circle fill="#ABE1FA" cx="258.9" cy="369.4" r="0.5"/>
		</g>
		<g>
			<circle fill="#FFFFFF" cx="256.4" cy="382.6" r="0.9"/>
			<circle fill="#ABE1FA" cx="256.6" cy="382.7" r="0.5"/>
		</g>
		<g>
			<circle fill="#FFFFFF" cx="262.8" cy="361.5" r="0.9"/>
			<circle fill="#ABE1FA" cx="263" cy="361.6" r="0.5"/>
		</g>
		<g>
			<circle fill="#FFFFFF" cx="247" cy="294.2" r="0.9"/>
			<circle fill="#ABE1FA" cx="247.2" cy="294.3" r="0.5"/>
		</g>
		<g>
			<circle fill="#FFFFFF" cx="239.3" cy="299.7" r="0.9"/>
			<circle fill="#ABE1FA" cx="239.5" cy="299.8" r="0.5"/>
		</g>
		<g>
			<circle fill="#FFFFFF" cx="256.1" cy="313.9" r="0.9"/>
			<circle fill="#ABE1FA" cx="256.3" cy="314" r="0.5"/>
		</g>
		<g>
			<circle fill="#FFFFFF" cx="247.2" cy="388.7" r="0.9"/>
			<circle fill="#ABE1FA" cx="247.4" cy="388.8" r="0.5"/>
		</g>
		<g>
			<circle fill="#FFFFFF" cx="249.3" cy="402.1" r="0.9"/>
			<circle fill="#ABE1FA" cx="249.5" cy="402.2" r="0.5"/>
		</g>
		<g>
			<circle fill="#FFFFFF" cx="246.1" cy="408.1" r="0.9"/>
			<circle fill="#ABE1FA" cx="246.3" cy="408.2" r="0.5"/>
		</g>
		<g>
			<circle fill="#FFFFFF" cx="245.4" cy="380.6" r="2.4"/>
			<circle fill="#ABE1FA" cx="246" cy="381" r="1.3"/>
		</g>
		<g>
			<circle fill="#FFFFFF" cx="257.3" cy="357.5" r="2.4"/>
			<circle fill="#ABE1FA" cx="257.9" cy="357.9" r="1.3"/>
		</g>
		<g>
			<circle fill="#FFFFFF" cx="271.5" cy="337.1" r="2.4"/>
			<circle fill="#ABE1FA" cx="272" cy="337.5" r="1.3"/>
		</g>
		<g>
			<circle fill="#FFFFFF" cx="251.4" cy="321.6" r="2.4"/>
			<circle fill="#ABE1FA" cx="252" cy="322" r="1.3"/>
		</g>
		<g>
			<circle fill="#FFFFFF" cx="254.1" cy="291.7" r="2.4"/>
			<circle fill="#ABE1FA" cx="254.7" cy="292" r="1.3"/>
		</g>
		<g>
			<circle fill="#FFFFFF" cx="251.9" cy="347.7" r="2.4"/>
			<circle fill="#ABE1FA" cx="252.4" cy="348" r="1.3"/>
		</g>
		<g>
			<circle fill="#FFFFFF" cx="249.3" cy="302.4" r="2.4"/>
			<circle fill="#ABE1FA" cx="249.9" cy="302.8" r="1.3"/>
		</g>
		<g>
			<circle fill="#FFFFFF" cx="243.1" cy="310.9" r="2.4"/>
			<circle fill="#ABE1FA" cx="243.7" cy="311.2" r="1.3"/>
		</g>
		<g>
			<circle fill="#FFFFFF" cx="255.7" cy="365.2" r="2.4"/>
			<circle fill="#ABE1FA" cx="256.3" cy="365.6" r="1.3"/>
		</g>
		<g>
			<circle fill="#FFFFFF" cx="256.4" cy="374.7" r="3.1"/>
			<circle fill="#ABE1FA" cx="257.2" cy="375.2" r="1.6"/>
		</g>
		<g>
			<circle fill="#FFFFFF" cx="262.7" cy="326.1" r="3.1"/>
			<circle fill="#ABE1FA" cx="263.5" cy="326.6" r="1.6"/>
		</g>
		<g>
			<circle fill="#FFFFFF" cx="240.5" cy="342.7" r="3.1"/>
			<circle fill="#ABE1FA" cx="241.3" cy="343.2" r="1.6"/>
		</g>
		<g>
			<circle fill="#FFFFFF" cx="267.5" cy="310.5" r="3.1"/>
			<circle fill="#ABE1FA" cx="268.2" cy="311" r="1.6"/>
		</g>
		<g>
			<circle fill="#FFFFFF" cx="247.1" cy="359.4" r="3.1"/>
			<circle fill="#ABE1FA" cx="247.9" cy="359.9" r="1.6"/>
		</g>
		<g>
			<circle fill="#FFFFFF" cx="250.8" cy="331.6" r="3.1"/>
			<circle fill="#ABE1FA" cx="251.5" cy="332.1" r="1.6"/>
		</g>
		<g>
			<circle fill="#FFFFFF" cx="261.6" cy="342.5" r="4.8"/>
			<circle fill="#ABE1FA" cx="262.7" cy="343.3" r="2.5"/>
		</g>
		<g>
			<circle fill="#FFFFFF" cx="257.4" cy="305.6" r="4.8"/>
			<circle fill="#ABE1FA" cx="258.6" cy="306.4" r="2.5"/>
		</g>
		<g>
			<circle fill="#FFFFFF" cx="237.9" cy="322.8" r="4.8"/>
			<circle fill="#ABE1FA" cx="239" cy="323.5" r="2.5"/>
		</g>
	</g>
	<g opacity="0.13">
		<polygon fill="#FFFFFF" points="657,980 771.3,980 116.7,0 87.1,0 		"/>
	</g>
	<g opacity="0.13">
		<polygon fill="#FFFFFF" points="1199.1,980 1313.4,980 658.8,0 629.2,0 		"/>
	</g>
	<polygon opacity="0.13" fill="#FFFFFF" points="1400,478.9 1080.1,0 1050.6,0 1400,600.9 	"/>
	<g opacity="0.13">
		<polygon fill="#FFFFFF" points="1277.8,980 1327.4,980 688.1,0 667.5,0 		"/>
	</g>
	<polygon opacity="0.13" fill="#FFFFFF" points="0,225.2 438.9,980 553.2,980 0,151.8 	"/>
	<g>
		<path fill="#292927" d="M996.2,348.6c0.6-0.2,16.9,0.8,20.9,9.8s-19.7,3.6-19.7,3.6L996.2,348.6z"/>
		<g>
			<path fill="#FBB165" d="M775.3,414.7c-10,9.5-16.6,15.5-16.6,15.5s-16-1.8-27.4,8.5c-2.8,2.5-6.4,3.9-10.2,3.4
				c-7.2-0.9-18.2-1.9-19.9-0.2c-2.5,2.4-2.5,2.4-2.5,2.4l21.1,5.5c0,0-25.9,1.1-26.2,9.1l24.4-1.6c0,0-22.4,3.8-20.9,13.1l20.1-5.2
				c0,0-18,8.1-16,14.7c0,0,31-10.1,34-12.2c2.9-2.1,24-11.3,32.1-16.4c3.3-2.1,10.4-8.2,20.5-14.3
				C782.6,429.3,779.7,422.8,775.3,414.7z"/>
			<path fill="#155474" d="M1019.5,376.8c0,0-11-27.5-58.3-9.1c0,0-61-18.1-103.1-8.8c-42.1,9.3-99.4,70.9-99.4,70.9s0.4,0,0,0
				c3.4,4.5,7.2,11.6,8.5,21.6c0.3-0.2,0.5-0.3,0.8-0.5c8.1-5.1,49.3-31.1,64.4-35.9c15.1-4.7,41.5-15.1,41.5-15.1s54.1,0.8,69.1,9
				c15,8.2,37.2,17.7,53.1,14.4C1011.9,420,1028.5,398.3,1019.5,376.8z"/>
		</g>
		<path fill="#28446C" d="M740.9,503.8c-49,32.8-130.8,89.6-130.8,89.6s-25.7-6-80.3,9.5c-54.6,15.5-89.9,14-110.9,0.4
			c-21-13.6-25.4-8.5-44.6,27c-19.2,35.5-15.4,59.7-7.6,70.6c7.9,10.9,13.1-5,17.6-14c4.5-9,23.9-42.3,35.8-44.9s151.1,15,198.2,4.7
			c31.4-6.8,141.5-64.3,195.5-93.7L740.9,503.8z"/>
		<path fill="#202D4A" d="M659.4,631.3c46.8-20.8,115.4-56.9,154.5-78.2l-72.9-49.3c-35.9,24.1-89.5,61.1-115.6,79.1
			C629.1,591.1,642.2,618.4,659.4,631.3z"/>
		<path fill="#28446C" d="M1114.8,308.2c-6.5-17.1-21.1-57.2-42.2-59.7c-21.1-2.5-53.7,7.4-63.7,33.2c-7.2,18.8,4.8,45.8,11.9,59.2
			c2.6,5,1.7,11.1-2.4,15l-6.7,6.3c-43.6,3-69.2,36.2-69.2,36.2s-60.9,59.1-116.3,56.8c-33.8-1.4-49.8,10.7-57.1,20.4
			c-6,7.9-14.8,13.2-24.5,15.4c-57.9,12.7-138.3,31.4-138.3,31.4s-21.7-15-78.1-20.9c-56.4-5.8-88.7-20.2-103.2-40.6
			c-14.4-20.4-20.5-17.3-51.4,8.6c-30.9,25.9-36.4,49.8-33.1,62.8c3.3,13,14,0.2,21.5-6.5c7.5-6.7,37.8-30.5,49.9-28.4
			c12.1,2.1,134.9,69.8,182.4,77.7c47.5,7.9,241.5-19,241.5-19s121.9-21.6,186.6-66s40.1-52.2,39-85.5
			c-1.2-33.3,16.7-45.7,16.7-45.7C1125.9,365.9,1121.2,325.3,1114.8,308.2z"/>
		<path fill="#FBB165" d="M1114.8,308.2c-3.4-9.1-9.2-24.8-17.1-37.9l-0.6,0.1c0,0-15.6,5.2-18.1,11.7c-2.4,6.5,11.3,41.9,19.7,47.5
			c7.3,4.8,17.1,6.3,19.6,6.6C1119.8,326.3,1117.5,315.3,1114.8,308.2z"/>
		<polygon fill="#C7671F" points="1009.6,318.5 1086.2,290.8 1093,308.3 1016.7,336.9 		"/>
		<g>
			<path fill="#FFF8AA" d="M1113,347.6c-13.8,4.2-36.4,4.2-47,2.8c-8.6-1.2-15.9-7.1-23-12.9c-4.7-3.8-9.2-7.5-13.8-9.6
				c-9.8-4.6-22.7,5.9-22.8,6l-4.7-5.6c0.7-0.6,16.4-13.8,30.6-7.1c5.4,2.6,10.4,6.6,15.3,10.6c6.6,5.4,12.8,10.5,19.4,11.3
				c13,1.8,39.8,0.7,48.7-4.5c5-2.9,7.1-7.5,6.6-10.6c-0.4-2.3-2.2-3.8-5.4-4.5l1.4-7.2c6.2,1.2,10.3,5,11.2,10.4
				c1.1,6.6-3.1,14-10.2,18.1C1117.6,346,1115.4,346.9,1113,347.6z"/>
		</g>
		<path fill="#21395E" d="M1061.3,404.5c-0.2-4.9,0.1-9.3,0.6-13.3c-13.1-4.9-36.8-15-50.2-28.9h0c-43.6,3-69.2,36.2-69.2,36.2
			s-60.9,59.1-116.3,56.8c-33.8-1.4-49.8,10.7-57.1,20.4c-6,7.9-14.8,13.2-24.5,15.4c-41.7,9.1-95,21.4-121.6,27.5
			c0.4,10.4,2.6,30.9,11.5,57.6c73.6-2.5,201.2-20.2,201.2-20.2s121.9-21.6,186.6-66S1062.5,437.8,1061.3,404.5z"/>
		<polygon fill="#363634" points="840.5,455.2 878.7,548.5 904.4,542.6 876.8,439.3 		"/>
		<path fill="#363634" d="M857.5,460.1c0,0,70.6,48.9,137.9,31.3c57.5-15,66.8-30.2,76.2-47.9c9.5-17.7,5.9-67.2-66.2-79.8
			l-6.6,19.2c0,0,53.2,7.2,62.9,32.6c9.2,24-11.9,41.3-11.9,41.3s-34.1,26.1-85.9,22.2c-51.8-3.9-84.6-30.3-84.6-30.3L857.5,460.1z"
			/>
		<path fill="#363634" d="M846.5,455.8l4.4,9.8l127.3-62.2c0,0,29.9-12.9,30-19.2c0-6.3,1.4-27.5-9.9-28c-11.3-0.5-5.9-2.1-11.3-0.5
			s-145.3,82.6-145.3,82.6L846.5,455.8z"/>
		<path fill="#202D4A" d="M418.4,603c0,0-27.9,17.6-15.6,55.8c0,0-15.8,20.7-32.8,70c-17,49.3-87.3,156.4-182.6,180.7
			c0,0-8.2,5.5-3.2-10.5c5.1-16-24.2-14.7-17.5-50.2c0,0,0.1-4.6-3-7.5c-3.1-2.9-10.1-8.3,4.9-9.1c15-0.7,107.5-24.2,146.1-85.3
			s54.9-120.7,72.1-144.4C400.2,584.1,418.4,603,418.4,603z"/>
		<path fill="#202D4A" d="M422.8,458.5c0,0-30.6,6.7-32.4,46.7c0,0-23.7,14-56.9,54.2c-33.2,40.2-136.4,116.1-234.2,105.5
			c0,0-9.6,2.3,0.7-10.9c10.3-13.2-17.6-22.3,1.2-53.2c0,0,1.7-4.3-0.2-8c-1.9-3.8-6.6-11.4,7.7-6.8c14.3,4.6,109.2,14.9,166.7-28.8
			c57.5-43.8,93.7-93.9,118-110.1C412.3,434.4,422.8,458.5,422.8,458.5z"/>
		<g>
			<g>
				
					<rect x="977.1" y="315.9" transform="matrix(0.3944 0.919 -0.919 0.3944 902.8973 -703.8641)" fill="#3C3C3A" width="16.8" height="34.3"/>
				<g>
					<path fill="#535050" d="M982,342.3l-5.6-13.2c-6.9-16.1-25.5-23.5-41.6-16.6l-177.6,76.2l30.6,71.4L965.4,384
						C981.5,377,988.9,358.4,982,342.3z"/>
					<path fill="#363634" d="M919.2,404.8l-31-72.1c-0.5-1.1-1.7-1.6-2.8-1.1l-13.3,5.3c-1.1,0.5-1.6,1.7-1.1,2.8l31,72.1
						c0.5,1.1,1.7,1.6,2.8,1.1l13.3-5.3C919.2,407.2,919.7,405.9,919.2,404.8z"/>
					<path fill="#363634" d="M884.2,420.6l-31-72.1c-0.5-1.1-1.7-1.6-2.8-1.1l-13.3,5.3c-1.1,0.5-1.6,1.7-1.1,2.8l31,72.1
						c0.5,1.1,1.7,1.6,2.8,1.1l13.3-5.3C884.1,423,884.7,421.7,884.2,420.6z"/>
				</g>
				<path fill="#363634" d="M808.7,451.7l-31-72.1c-0.5-1.1-1.7-1.6-2.8-1.1l-37.4,16c-1.1,0.5-1.6,1.7-1.1,2.8l31,72.1
					c0.5,1.1,1.7,1.6,2.8,1.1l37.4-16C808.6,454,809.1,452.7,808.7,451.7z"/>
			</g>
			<g>
				
					<rect x="986" y="322.7" transform="matrix(0.3944 0.919 -0.919 0.3944 914.6232 -707.9791)" fill="#3C3C3A" width="16.8" height="34.3"/>
				<g>
					<path fill="#625E5E" d="M991,349.2l-5.6-13.2c-6.9-16.1-25.5-23.5-41.6-16.6l-177.6,76.2l30.6,71.4l177.6-76.2
						C990.5,383.9,997.9,365.3,991,349.2z"/>
					<path fill="#535050" d="M991,349.2l-2.9-6.7l-206.7,88.7l15.4,35.8l177.6-76.2C990.5,383.9,997.9,365.3,991,349.2z"/>
				</g>
				<path fill="#3C3C3A" d="M817.7,458.5l-31-72.1c-0.5-1.1-1.7-1.6-2.8-1.1l-37.4,16c-1.1,0.5-1.6,1.7-1.1,2.8l31,72.1
					c0.5,1.1,1.7,1.6,2.8,1.1l37.4-16C817.6,460.9,818.1,459.6,817.7,458.5z"/>
				<path fill="#3C3C3A" d="M890.8,427.3l-31-72.1c-0.5-1.1-1.7-1.6-2.8-1.1l-13.3,5.3c-1.1,0.5-1.6,1.7-1.1,2.8l31,72.1
					c0.5,1.1,1.7,1.6,2.8,1.1l13.3-5.3C890.7,429.6,891.3,428.4,890.8,427.3z"/>
				<path fill="#3C3C3A" d="M925.8,411.5l-31-72.1c-0.5-1.1-1.7-1.6-2.8-1.1l-13.3,5.3c-1.1,0.5-1.6,1.7-1.1,2.8l31,72.1
					c0.5,1.1,1.7,1.6,2.8,1.1l13.3-5.3C925.8,413.9,926.3,412.6,925.8,411.5z"/>
			</g>
		</g>
		<path fill="#F09526" d="M269.8,568.3c-53.3,32-90.3,27.3-122,27.4c-23.7,0.1-41.4-4.9-48.9-7.4c0.4,1.5,1.4,3.2,2,4.5
			c1.9,3.8,0.2,8,0.2,8c-18.7,30.9,9.1,40-1.2,53.2c-2.7,3.5-4,5.9-4.5,7.5c28.8,4,63.9-2.6,63.9-2.6
			c86.3-23.6,127.5-57.6,155.1-86.3C341.9,543.9,323.1,536.3,269.8,568.3z"/>
		<path fill="#F09526" d="M293.6,777.5c-47.1,47.9-110.6,57.9-133.7,59.9c0.9,1.4,2.6,2.9,3.8,4c3.1,2.9,3,7.5,3,7.5
			c-6.8,35.5,22.5,34.3,17.5,50.2c-1.4,4.4-1.8,7.1-1.6,8.8c46.2-6.7,90.6-44.3,123-80c33.8-37.2,53.5-80.5,50.5-94.4
			C353.2,719.5,352.1,717.9,293.6,777.5z"/>
		<path fill="#F7941E" d="M1103.2,271.7c0,0-20.3,5.2-20.9,10.4s5.1,33.5,13.2,37.3c8,3.8,12.4-0.3,15.8-3.5
			c3.4-3.2,6.7-10.8,6.7-10.8S1114.8,283.2,1103.2,271.7z"/>
		<path fill="#96BEE5" d="M1105.1,274c0,0-16.2,3.4-18.3,8.4s4.2,23.8,7.8,30c3.6,6.2,8.9,4.3,11.3,2.7c2.4-1.6,11.3-14.3,11.3-14.3
			S1115,283.8,1105.1,274z"/>
		<path fill="#292927" d="M1121.3,312.7c-0.7-0.9-2-1.2-3-0.7c-1.8,0.8-4.7,2.4-4.4,4c0.3,2.4,1.4,11.5,0.6,14.3
			c-0.8,2.8,4.3,6.2,6.2,5.1c1.9-1.1,4.7-7.4,4.3-12C1124.7,319.9,1123.2,315,1121.3,312.7z"/>
		<path fill="#292927" d="M1130,306.8l-8.3,2.5c-1.7,0.5-2.6,2.3-2.1,3.9l6.8,22.4c0.5,1.7,2.3,2.6,3.9,2.1l8.3-2.5
			c1.7-0.5,2.6-2.3,2.1-3.9l-6.8-22.4C1133.5,307.2,1131.7,306.3,1130,306.8z"/>
		<g>
			<path fill="#FFF8AA" d="M994.6,537.6c-37.1-3.7-88.8-40.9-118.5-74.1c-15.8-17.6-36.8-59-29.8-100.6
				c4.8-28.7,21.7-51.3,50.3-67.3c26.6-14.8,50-18.4,69.7-10.5c28,11.2,37.6,41.3,38,42.6l-7,2.2l3.5-1.1l-3.5,1.1
				c-0.1-0.3-9-28.1-33.8-38c-17.5-7-38.8-3.6-63.3,10.2c-26.6,14.8-42.3,35.7-46.7,62.1c-6.5,38.8,13.8,78.6,28,94.5
				c28.8,32.2,78.5,68.2,113.8,71.7L994.6,537.6z"/>
		</g>
		<g>
			<circle fill="#535050" cx="1000.7" cy="328.6" r="12.7"/>
			<circle fill="#FFFCD7" cx="1000.7" cy="328.6" r="10.2"/>
		</g>
		<g>
			<circle fill="#535050" cx="995.8" cy="533.9" r="12.7"/>
			<circle fill="#FFFCD7" cx="995.8" cy="533.9" r="10.2"/>
		</g>
		<g>
			<path fill="#FBB165" d="M853.7,576.6c-3.3,13.9-5.6,22.7-5.6,22.7s-14.9,7.5-18.8,22.8c-1,3.7-3.3,7-6.8,8.7
				c-6.7,3.3-16.7,8.7-17.3,11c-0.8,3.5-0.8,3.5-0.8,3.5l21.3-7.2c0,0-21.7,15.5-17.4,22.6l20.1-15.1c0,0-17.2,15.9-10.6,23.1
				l14.4-15.8c0,0-10.9,17.1-5.5,21.7c0,0,21-26.2,22.4-29.7c1.4-3.5,14.3-23.2,18.4-32.2c1.7-3.6,4.3-12.9,9.7-23.9
				C868.2,585,862.1,581.1,853.7,576.6z"/>
			<path fill="#155474" d="M1042.8,406.2c0,0-25-17.5-55.3,25c0,0-62.8,18.8-93.8,50.6c-31.1,31.8-45.7,117.1-45.7,117.1
				s0.4-0.2,0,0c5.4,2,12.8,6,19.5,13.8c0.1-0.3,0.3-0.6,0.4-0.8c4.1-9,25-54.7,35.3-67.2c10.3-12.6,27.2-36.4,27.2-36.4
				s47.1-29.8,64.6-31.2c17.5-1.3,42.1-5.8,53.9-17.5C1060.6,447.8,1062.7,419.7,1042.8,406.2z"/>
		</g>
		<polygon fill="#363634" points="870.7,467.5 898.3,458.1 901.9,471.7 875.9,482.8 		"/>
	</g>
	<g opacity="0.13">
		<polygon fill="#FFFFFF" points="769.4,980 883.7,980 229.1,0 199.5,0 		"/>
	</g>
</g>
</svg>
